<svg width="150" height="150" viewBox="0 0 150 150" fill="none" xmlns="http://www.w3.org/2000/svg">
<path id="CodePen" d="M70.9989 58.7109V40.0781L39.6596 60.9375L53.6551 70.279L70.9989 58.7109ZM113.538 81.7634V68.404L103.527 75.0837L113.538 81.7634ZM75 0C33.5826 0 0 33.5826 0 75C0 116.417 33.5826 150 75 150C116.417 150 150 116.417 150 75C150 33.5826 116.417 0 75 0ZM121.54 89.2299C121.54 89.4141 121.523 89.5815 121.507 89.7489C121.507 89.8158 121.49 89.8661 121.473 89.9163C121.45 90.0995 121.405 90.2793 121.339 90.452C121.306 90.5525 121.272 90.6529 121.239 90.7366C121.205 90.8036 121.172 90.8705 121.155 90.9375C121.105 91.0212 121.071 91.1217 121.021 91.2054C120.988 91.2723 120.954 91.3225 120.904 91.3895C120.854 91.4732 120.787 91.5569 120.737 91.6406C120.686 91.7076 120.653 91.7578 120.603 91.808C120.536 91.875 120.469 91.9587 120.402 92.0257C120.352 92.0759 120.301 92.1261 120.234 92.1763C120.167 92.2433 120.084 92.3103 120 92.3605C119.933 92.4107 119.883 92.4609 119.816 92.4944C119.799 92.5112 119.766 92.5279 119.749 92.5446L77.2098 120.871C76.5402 121.323 75.7701 121.54 75 121.54C74.2132 121.54 73.4431 121.306 72.7734 120.871L30.2344 92.5614C30.2176 92.5446 30.1842 92.5279 30.1674 92.5112L29.9833 92.3772C29.8996 92.3103 29.8326 92.26 29.7656 92.1931C29.7154 92.1429 29.6652 92.0926 29.5982 92.0424C29.5313 91.9754 29.4643 91.9085 29.3973 91.8248C29.3477 91.7732 29.3028 91.7171 29.2634 91.6574C29.1964 91.5737 29.1462 91.49 29.096 91.4063C29.0625 91.3393 29.0123 91.2891 28.9788 91.2221C28.9286 91.1384 28.8783 91.0379 28.8449 90.9542C28.8114 90.8873 28.7779 90.8203 28.7612 90.7533C28.7277 90.6529 28.6942 90.5525 28.6607 90.4688C28.644 90.4018 28.6105 90.3348 28.5938 90.2679C28.5603 90.1507 28.5435 90.0502 28.5268 89.933C28.51 89.8828 28.51 89.8159 28.4933 89.7656C28.4766 89.5982 28.4598 89.4141 28.4598 89.2466V60.9208C28.4598 60.7533 28.4766 60.5692 28.4933 60.4018C28.51 60.3516 28.51 60.2846 28.5268 60.2344C28.5504 60.0512 28.5954 59.8714 28.6607 59.6987C28.6942 59.5982 28.7277 59.4978 28.7612 59.4141C28.7946 59.3471 28.8281 59.2801 28.8449 59.2132C28.8783 59.1295 28.9286 59.029 28.9788 58.9453C29.0123 58.8783 29.0458 58.8281 29.096 58.7612C29.1964 58.6105 29.2969 58.4766 29.3973 58.3426C29.4643 58.2757 29.5313 58.192 29.5982 58.125C29.6484 58.0748 29.6987 58.0246 29.7656 57.9743C29.8326 57.9074 29.9163 57.8404 29.9833 57.7902C30.0502 57.74 30.1004 57.6897 30.1674 57.6562C30.1842 57.6395 30.2176 57.6228 30.2344 57.606L72.7734 29.2969C74.1127 28.4096 75.8705 28.4096 77.2098 29.2969L119.749 57.606C119.766 57.6228 119.799 57.6395 119.816 57.6562L120 57.7902L120.234 57.9743C120.285 58.0246 120.335 58.0748 120.402 58.125C120.469 58.192 120.536 58.2589 120.603 58.3426C120.72 58.4766 120.82 58.6105 120.904 58.7612C120.938 58.8281 120.988 58.8783 121.021 58.9453C121.071 59.029 121.122 59.1127 121.155 59.2132C121.189 59.2801 121.222 59.3471 121.239 59.4141C121.272 59.5145 121.306 59.615 121.339 59.6987C121.356 59.7656 121.39 59.8326 121.406 59.8996C121.44 60.0167 121.456 60.1172 121.473 60.2344C121.49 60.2846 121.49 60.3516 121.507 60.4018C121.523 60.5692 121.54 60.7533 121.54 60.9208V89.2299V89.2299ZM79.0011 91.4565V110.089L110.34 89.2299L96.3449 79.8884L79.0011 91.4565ZM36.4621 68.404V81.7634L46.4732 75.0837L36.4621 68.404ZM75 65.6417L60.8538 75.0837L75 84.5257L89.1462 75.0837L75 65.6417ZM110.34 60.9375L79.0011 40.0781V58.7109L96.3449 70.279L110.34 60.9375ZM53.6551 79.8884L39.6596 89.2299L70.9989 110.089V91.4565L53.6551 79.8884V79.8884Z" fill="black"/>
</svg>
