<svg width="150" height="150" viewBox="0 0 150 150" fill="none" xmlns="http://www.w3.org/2000/svg">
<path id="WP" d="M75.6505 0.000112317C46.1301 -0.0510374 18.3449 17.3718 5.59327 44.9502L41.4484 45.0351V48.9381C30.4077 47.6157 31.3799 53.3223 32.9429 59.3791L56.4801 118.093L73.7801 77.7296L65.8382 58.8135C62.9534 53.7469 62.8925 48.126 51.0907 48.6554L51.2564 45.0587L103.843 45.186V49.2164C97.6847 49.5759 90.2714 47.6753 94.2011 60.2277L115.47 115.835L127.096 83.3719C130.904 69.7634 127.321 56.6856 122.796 43.8614C120.28 35.2582 121.453 28.0734 132.732 25.2232C115.517 7.73257 95.2033 0.0340121 75.6511 0.000112317H75.6505ZM147.171 51.3374L113.078 139.79C122.493 131.674 132.147 128.719 143.96 106.262C151.82 87.5818 151.011 70.2772 147.171 51.3372V51.3374ZM1.98454 52.7703C-1.34314 78.8829 -1.03872 86.5311 7.19871 107.855C17.9363 128.278 26.263 132.581 38.0811 140.592L1.98439 52.7703H1.98454ZM76.9813 85.903L51.7156 146.578C69.4505 151.616 85.3191 150.986 99.846 145.381L76.9813 85.9029V85.903Z" fill="#20749C"/>
</svg>
