<svg width="1440" height="1024" viewBox="0 0 1440 1024" fill="none" xmlns="http://www.w3.org/2000/svg">
<g id="BackgroundAboutMe">
<g id="endless-constellation 1" clip-path="url(#clip0)">
<path id="Vector" d="M360 769H0V1024H360V769Z" fill="#73BDD7"/>
<g id="Group">
<path id="Vector_2" d="M417.15 1049.5L328.95 1003.92L234 979.375L139.05 940.487L18 959.931L132.75 1012.52L56.925 1049.34L18 959.931L-88.65 926.144L45.9 890.762L-13.95 841.994L56.925 794.341L-31.05 748.919M346.05 841.994L466.65 852.162L346.05 841.994Z" stroke="#2E2C21" stroke-width="0.25"/>
<path id="Vector_3" d="M166.5 1057.47L132.75 1012.53M-13.95 841.994L106.65 852.194L175.5 890.763L271.35 926.144L138.825 940.328L45.675 890.603L-13.95 841.994Z" stroke="#2E2C21" stroke-width="0.25"/>
<path id="Vector_4" d="M234 979.375L260.1 1037.39L328.95 1003.92L378 959.931L271.35 926.144L234 979.375ZM234 979.375L132.75 1012.53L139.05 940.488L175.5 890.763L242.55 854.744L346.05 841.994L259.875 782.228L166.5 802.469L132.75 757.525L56.925 794.341L106.65 852.194L45.9 890.763L18 959.931L-31.05 1003.92L57.15 1049.5" stroke="#2E2C21" stroke-width="0.25"/>
<path id="Vector_5" d="M175.5 890.763H45.9M234 724.375L260.325 782.547L328.95 748.919L234 724.375ZM271.35 926.144L242.55 854.744L106.65 852.194L166.5 802.469L271.35 926.144ZM405.9 890.763L242.55 854.744L405.9 890.763Z" stroke="#2E2C21" stroke-width="0.25"/>
<path id="Vector_6" d="M45.9 890.763L-117.45 854.744M-99.9 782.388L56.925 794.341L166.5 802.469L242.55 854.744L259.875 782.228L417.15 794.5L346.05 841.994L405.9 890.763L271.35 926.144L328.95 1003.92L-99.9 782.388ZM132.75 757.525L259.875 782.228L132.75 757.525ZM260.1 1037.39L132.75 1012.53L260.1 1037.39ZM18 704.931L57.15 794.5L18 704.931Z" stroke="#2E2C21" stroke-width="0.25"/>
</g>
<g id="Group_2">
<path id="Vector_7" d="M346.05 843.588C347.293 843.588 348.3 842.874 348.3 841.994C348.3 841.114 347.293 840.4 346.05 840.4C344.807 840.4 343.8 841.114 343.8 841.994C343.8 842.874 344.807 843.588 346.05 843.588Z" fill="#2E2C21"/>
<path id="Vector_8" d="M242.55 856.338C243.793 856.338 244.8 855.624 244.8 854.744C244.8 853.864 243.793 853.15 242.55 853.15C241.307 853.15 240.3 853.864 240.3 854.744C240.3 855.624 241.307 856.338 242.55 856.338Z" fill="#2E2C21"/>
<path id="Vector_9" d="M271.35 927.738C272.593 927.738 273.6 927.024 273.6 926.144C273.6 925.264 272.593 924.55 271.35 924.55C270.107 924.55 269.1 925.264 269.1 926.144C269.1 927.024 270.107 927.738 271.35 927.738Z" fill="#2E2C21"/>
<path id="Vector_10" d="M328.95 1005.51C330.193 1005.51 331.2 1004.8 331.2 1003.92C331.2 1003.04 330.193 1002.33 328.95 1002.33C327.707 1002.33 326.7 1003.04 326.7 1003.92C326.7 1004.8 327.707 1005.51 328.95 1005.51Z" fill="#2E2C21"/>
<path id="Vector_11" d="M234 980.969C235.243 980.969 236.25 980.255 236.25 979.375C236.25 978.495 235.243 977.781 234 977.781C232.757 977.781 231.75 978.495 231.75 979.375C231.75 980.255 232.757 980.969 234 980.969Z" fill="#2E2C21"/>
<path id="Vector_12" d="M139.05 942.081C140.293 942.081 141.3 941.368 141.3 940.488C141.3 939.607 140.293 938.894 139.05 938.894C137.807 938.894 136.8 939.607 136.8 940.488C136.8 941.368 137.807 942.081 139.05 942.081Z" fill="#2E2C21"/>
<path id="Vector_13" d="M132.75 1014.12C133.993 1014.12 135 1013.41 135 1012.53C135 1011.64 133.993 1010.93 132.75 1010.93C131.507 1010.93 130.5 1011.64 130.5 1012.53C130.5 1013.41 131.507 1014.12 132.75 1014.12Z" fill="#2E2C21"/>
<path id="Vector_14" d="M18 961.525C19.2426 961.525 20.25 960.812 20.25 959.931C20.25 959.051 19.2426 958.338 18 958.338C16.7574 958.338 15.75 959.051 15.75 959.931C15.75 960.812 16.7574 961.525 18 961.525Z" fill="#2E2C21"/>
<path id="Vector_15" d="M45.9 892.356C47.1426 892.356 48.15 891.643 48.15 890.763C48.15 889.882 47.1426 889.169 45.9 889.169C44.6574 889.169 43.65 889.882 43.65 890.763C43.65 891.643 44.6574 892.356 45.9 892.356Z" fill="#2E2C21"/>
<path id="Vector_16" d="M57.15 796.094C58.3927 796.094 59.4 795.38 59.4 794.5C59.4 793.62 58.3927 792.906 57.15 792.906C55.9074 792.906 54.9 793.62 54.9 794.5C54.9 795.38 55.9074 796.094 57.15 796.094Z" fill="#2E2C21"/>
<path id="Vector_17" d="M166.5 804.062C167.743 804.062 168.75 803.349 168.75 802.469C168.75 801.589 167.743 800.875 166.5 800.875C165.257 800.875 164.25 801.589 164.25 802.469C164.25 803.349 165.257 804.062 166.5 804.062Z" fill="#2E2C21"/>
<path id="Vector_18" d="M260.1 783.981C261.343 783.981 262.35 783.268 262.35 782.388C262.35 781.507 261.343 780.794 260.1 780.794C258.857 780.794 257.85 781.507 257.85 782.388C257.85 783.268 258.857 783.981 260.1 783.981Z" fill="#2E2C21"/>
<path id="Vector_19" d="M106.65 853.788C107.893 853.788 108.9 853.074 108.9 852.194C108.9 851.314 107.893 850.6 106.65 850.6C105.407 850.6 104.4 851.314 104.4 852.194C104.4 853.074 105.407 853.788 106.65 853.788Z" fill="#2E2C21"/>
<path id="Vector_20" d="M175.5 892.356C176.743 892.356 177.75 891.643 177.75 890.763C177.75 889.882 176.743 889.169 175.5 889.169C174.257 889.169 173.25 889.882 173.25 890.763C173.25 891.643 174.257 892.356 175.5 892.356Z" fill="#2E2C21"/>
</g>
</g>
<g id="endless-constellation 9" clip-path="url(#clip1)">
<path id="Vector_21" d="M360 257H0V512H360V257Z" fill="#73BDD7"/>
<g id="Group_3">
<path id="Vector_22" d="M417.15 537.5L328.95 491.919L234 467.375L139.05 428.487L18 447.931L132.75 500.525L56.925 537.341L18 447.931L-88.65 414.144L45.9 378.762L-13.95 329.994L56.925 282.341L-31.05 236.919M346.05 329.994L466.65 340.162L346.05 329.994Z" stroke="#2E2C21" stroke-width="0.25"/>
<path id="Vector_23" d="M166.5 545.469L132.75 500.525M-13.95 329.994L106.65 340.194L175.5 378.763L271.35 414.144L138.825 428.328L45.675 378.603L-13.95 329.994Z" stroke="#2E2C21" stroke-width="0.25"/>
<path id="Vector_24" d="M234 467.375L260.1 525.388L328.95 491.919L378 447.931L271.35 414.144L234 467.375ZM234 467.375L132.75 500.525L139.05 428.488L175.5 378.763L242.55 342.744L346.05 329.994L259.875 270.228L166.5 290.469L132.75 245.525L56.925 282.341L106.65 340.194L45.9 378.763L18 447.931L-31.05 491.919L57.15 537.5" stroke="#2E2C21" stroke-width="0.25"/>
<path id="Vector_25" d="M175.5 378.763H45.9M234 212.375L260.325 270.547L328.95 236.919L234 212.375ZM271.35 414.144L242.55 342.744L106.65 340.194L166.5 290.469L271.35 414.144ZM405.9 378.763L242.55 342.744L405.9 378.763Z" stroke="#2E2C21" stroke-width="0.25"/>
<path id="Vector_26" d="M45.9 378.763L-117.45 342.744M-99.9 270.388L56.925 282.341L166.5 290.469L242.55 342.744L259.875 270.228L417.15 282.5L346.05 329.994L405.9 378.763L271.35 414.144L328.95 491.919L-99.9 270.388ZM132.75 245.525L259.875 270.228L132.75 245.525ZM260.1 525.388L132.75 500.525L260.1 525.388ZM18 192.931L57.15 282.5L18 192.931Z" stroke="#2E2C21" stroke-width="0.25"/>
</g>
<g id="Group_4">
<path id="Vector_27" d="M346.05 331.588C347.293 331.588 348.3 330.874 348.3 329.994C348.3 329.114 347.293 328.4 346.05 328.4C344.807 328.4 343.8 329.114 343.8 329.994C343.8 330.874 344.807 331.588 346.05 331.588Z" fill="#2E2C21"/>
<path id="Vector_28" d="M242.55 344.338C243.793 344.338 244.8 343.624 244.8 342.744C244.8 341.864 243.793 341.15 242.55 341.15C241.307 341.15 240.3 341.864 240.3 342.744C240.3 343.624 241.307 344.338 242.55 344.338Z" fill="#2E2C21"/>
<path id="Vector_29" d="M271.35 415.738C272.593 415.738 273.6 415.024 273.6 414.144C273.6 413.264 272.593 412.55 271.35 412.55C270.107 412.55 269.1 413.264 269.1 414.144C269.1 415.024 270.107 415.738 271.35 415.738Z" fill="#2E2C21"/>
<path id="Vector_30" d="M328.95 493.513C330.193 493.513 331.2 492.799 331.2 491.919C331.2 491.039 330.193 490.325 328.95 490.325C327.707 490.325 326.7 491.039 326.7 491.919C326.7 492.799 327.707 493.513 328.95 493.513Z" fill="#2E2C21"/>
<path id="Vector_31" d="M234 468.969C235.243 468.969 236.25 468.255 236.25 467.375C236.25 466.495 235.243 465.781 234 465.781C232.757 465.781 231.75 466.495 231.75 467.375C231.75 468.255 232.757 468.969 234 468.969Z" fill="#2E2C21"/>
<path id="Vector_32" d="M139.05 430.081C140.293 430.081 141.3 429.368 141.3 428.488C141.3 427.607 140.293 426.894 139.05 426.894C137.807 426.894 136.8 427.607 136.8 428.488C136.8 429.368 137.807 430.081 139.05 430.081Z" fill="#2E2C21"/>
<path id="Vector_33" d="M132.75 502.119C133.993 502.119 135 501.405 135 500.525C135 499.645 133.993 498.931 132.75 498.931C131.507 498.931 130.5 499.645 130.5 500.525C130.5 501.405 131.507 502.119 132.75 502.119Z" fill="#2E2C21"/>
<path id="Vector_34" d="M18 449.525C19.2426 449.525 20.25 448.812 20.25 447.931C20.25 447.051 19.2426 446.338 18 446.338C16.7574 446.338 15.75 447.051 15.75 447.931C15.75 448.812 16.7574 449.525 18 449.525Z" fill="#2E2C21"/>
<path id="Vector_35" d="M45.9 380.356C47.1426 380.356 48.15 379.643 48.15 378.763C48.15 377.882 47.1426 377.169 45.9 377.169C44.6574 377.169 43.65 377.882 43.65 378.763C43.65 379.643 44.6574 380.356 45.9 380.356Z" fill="#2E2C21"/>
<path id="Vector_36" d="M57.15 284.094C58.3927 284.094 59.4 283.38 59.4 282.5C59.4 281.62 58.3927 280.906 57.15 280.906C55.9074 280.906 54.9 281.62 54.9 282.5C54.9 283.38 55.9074 284.094 57.15 284.094Z" fill="#2E2C21"/>
<path id="Vector_37" d="M166.5 292.062C167.743 292.062 168.75 291.349 168.75 290.469C168.75 289.589 167.743 288.875 166.5 288.875C165.257 288.875 164.25 289.589 164.25 290.469C164.25 291.349 165.257 292.062 166.5 292.062Z" fill="#2E2C21"/>
<path id="Vector_38" d="M260.1 271.981C261.343 271.981 262.35 271.268 262.35 270.388C262.35 269.507 261.343 268.794 260.1 268.794C258.857 268.794 257.85 269.507 257.85 270.388C257.85 271.268 258.857 271.981 260.1 271.981Z" fill="#2E2C21"/>
<path id="Vector_39" d="M106.65 341.788C107.893 341.788 108.9 341.074 108.9 340.194C108.9 339.314 107.893 338.6 106.65 338.6C105.407 338.6 104.4 339.314 104.4 340.194C104.4 341.074 105.407 341.788 106.65 341.788Z" fill="#2E2C21"/>
<path id="Vector_40" d="M175.5 380.356C176.743 380.356 177.75 379.643 177.75 378.763C177.75 377.882 176.743 377.169 175.5 377.169C174.257 377.169 173.25 377.882 173.25 378.763C173.25 379.643 174.257 380.356 175.5 380.356Z" fill="#2E2C21"/>
</g>
</g>
<g id="endless-constellation 5" clip-path="url(#clip2)">
<path id="Vector_41" d="M1080 769H720V1024H1080V769Z" fill="#73BDD7"/>
<g id="Group_5">
<path id="Vector_42" d="M1137.15 1049.5L1048.95 1003.92L954 979.375L859.05 940.487L738 959.931L852.75 1012.52L776.925 1049.34L738 959.931L631.35 926.144L765.9 890.762L706.05 841.994L776.925 794.341L688.95 748.919M1066.05 841.994L1186.65 852.162L1066.05 841.994Z" stroke="#2E2C21" stroke-width="0.25"/>
<path id="Vector_43" d="M886.5 1057.47L852.75 1012.53M706.05 841.994L826.65 852.194L895.5 890.763L991.35 926.144L858.825 940.328L765.675 890.603L706.05 841.994Z" stroke="#2E2C21" stroke-width="0.25"/>
<path id="Vector_44" d="M954 979.375L980.1 1037.39L1048.95 1003.92L1098 959.931L991.35 926.144L954 979.375ZM954 979.375L852.75 1012.53L859.05 940.488L895.5 890.763L962.55 854.744L1066.05 841.994L979.875 782.228L886.5 802.469L852.75 757.525L776.925 794.341L826.65 852.194L765.9 890.763L738 959.931L688.95 1003.92L777.15 1049.5" stroke="#2E2C21" stroke-width="0.25"/>
<path id="Vector_45" d="M895.5 890.763H765.9M954 724.375L980.325 782.547L1048.95 748.919L954 724.375ZM991.35 926.144L962.55 854.744L826.65 852.194L886.5 802.469L991.35 926.144ZM1125.9 890.763L962.55 854.744L1125.9 890.763Z" stroke="#2E2C21" stroke-width="0.25"/>
<path id="Vector_46" d="M765.9 890.763L602.55 854.744M620.1 782.388L776.925 794.341L886.5 802.469L962.55 854.744L979.875 782.228L1137.15 794.5L1066.05 841.994L1125.9 890.763L991.35 926.144L1048.95 1003.92L620.1 782.388ZM852.75 757.525L979.875 782.228L852.75 757.525ZM980.1 1037.39L852.75 1012.53L980.1 1037.39ZM738 704.931L777.15 794.5L738 704.931Z" stroke="#2E2C21" stroke-width="0.25"/>
</g>
<g id="Group_6">
<path id="Vector_47" d="M1066.05 843.588C1067.29 843.588 1068.3 842.874 1068.3 841.994C1068.3 841.114 1067.29 840.4 1066.05 840.4C1064.81 840.4 1063.8 841.114 1063.8 841.994C1063.8 842.874 1064.81 843.588 1066.05 843.588Z" fill="#2E2C21"/>
<path id="Vector_48" d="M962.55 856.338C963.793 856.338 964.8 855.624 964.8 854.744C964.8 853.864 963.793 853.15 962.55 853.15C961.307 853.15 960.3 853.864 960.3 854.744C960.3 855.624 961.307 856.338 962.55 856.338Z" fill="#2E2C21"/>
<path id="Vector_49" d="M991.35 927.738C992.593 927.738 993.6 927.024 993.6 926.144C993.6 925.264 992.593 924.55 991.35 924.55C990.107 924.55 989.1 925.264 989.1 926.144C989.1 927.024 990.107 927.738 991.35 927.738Z" fill="#2E2C21"/>
<path id="Vector_50" d="M1048.95 1005.51C1050.19 1005.51 1051.2 1004.8 1051.2 1003.92C1051.2 1003.04 1050.19 1002.33 1048.95 1002.33C1047.71 1002.33 1046.7 1003.04 1046.7 1003.92C1046.7 1004.8 1047.71 1005.51 1048.95 1005.51Z" fill="#2E2C21"/>
<path id="Vector_51" d="M954 980.969C955.243 980.969 956.25 980.255 956.25 979.375C956.25 978.495 955.243 977.781 954 977.781C952.757 977.781 951.75 978.495 951.75 979.375C951.75 980.255 952.757 980.969 954 980.969Z" fill="#2E2C21"/>
<path id="Vector_52" d="M859.05 942.081C860.293 942.081 861.3 941.368 861.3 940.488C861.3 939.607 860.293 938.894 859.05 938.894C857.807 938.894 856.8 939.607 856.8 940.488C856.8 941.368 857.807 942.081 859.05 942.081Z" fill="#2E2C21"/>
<path id="Vector_53" d="M852.75 1014.12C853.993 1014.12 855 1013.41 855 1012.53C855 1011.64 853.993 1010.93 852.75 1010.93C851.507 1010.93 850.5 1011.64 850.5 1012.53C850.5 1013.41 851.507 1014.12 852.75 1014.12Z" fill="#2E2C21"/>
<path id="Vector_54" d="M738 961.525C739.243 961.525 740.25 960.812 740.25 959.931C740.25 959.051 739.243 958.338 738 958.338C736.757 958.338 735.75 959.051 735.75 959.931C735.75 960.812 736.757 961.525 738 961.525Z" fill="#2E2C21"/>
<path id="Vector_55" d="M765.9 892.356C767.143 892.356 768.15 891.643 768.15 890.763C768.15 889.882 767.143 889.169 765.9 889.169C764.657 889.169 763.65 889.882 763.65 890.763C763.65 891.643 764.657 892.356 765.9 892.356Z" fill="#2E2C21"/>
<path id="Vector_56" d="M777.15 796.094C778.393 796.094 779.4 795.38 779.4 794.5C779.4 793.62 778.393 792.906 777.15 792.906C775.907 792.906 774.9 793.62 774.9 794.5C774.9 795.38 775.907 796.094 777.15 796.094Z" fill="#2E2C21"/>
<path id="Vector_57" d="M886.5 804.062C887.743 804.062 888.75 803.349 888.75 802.469C888.75 801.589 887.743 800.875 886.5 800.875C885.257 800.875 884.25 801.589 884.25 802.469C884.25 803.349 885.257 804.062 886.5 804.062Z" fill="#2E2C21"/>
<path id="Vector_58" d="M980.1 783.981C981.343 783.981 982.35 783.268 982.35 782.388C982.35 781.507 981.343 780.794 980.1 780.794C978.857 780.794 977.85 781.507 977.85 782.388C977.85 783.268 978.857 783.981 980.1 783.981Z" fill="#2E2C21"/>
<path id="Vector_59" d="M826.65 853.788C827.893 853.788 828.9 853.074 828.9 852.194C828.9 851.314 827.893 850.6 826.65 850.6C825.407 850.6 824.4 851.314 824.4 852.194C824.4 853.074 825.407 853.788 826.65 853.788Z" fill="#2E2C21"/>
<path id="Vector_60" d="M895.5 892.356C896.743 892.356 897.75 891.643 897.75 890.763C897.75 889.882 896.743 889.169 895.5 889.169C894.257 889.169 893.25 889.882 893.25 890.763C893.25 891.643 894.257 892.356 895.5 892.356Z" fill="#2E2C21"/>
</g>
</g>
<g id="endless-constellation 10" clip-path="url(#clip3)">
<path id="Vector_61" d="M1080 257H720V512H1080V257Z" fill="#73BDD7"/>
<g id="Group_7">
<path id="Vector_62" d="M1137.15 537.5L1048.95 491.919L954 467.375L859.05 428.487L738 447.931L852.75 500.525L776.925 537.341L738 447.931L631.35 414.144L765.9 378.762L706.05 329.994L776.925 282.341L688.95 236.919M1066.05 329.994L1186.65 340.162L1066.05 329.994Z" stroke="#2E2C21" stroke-width="0.25"/>
<path id="Vector_63" d="M886.5 545.469L852.75 500.525M706.05 329.994L826.65 340.194L895.5 378.763L991.35 414.144L858.825 428.328L765.675 378.603L706.05 329.994Z" stroke="#2E2C21" stroke-width="0.25"/>
<path id="Vector_64" d="M954 467.375L980.1 525.388L1048.95 491.919L1098 447.931L991.35 414.144L954 467.375ZM954 467.375L852.75 500.525L859.05 428.488L895.5 378.763L962.55 342.744L1066.05 329.994L979.875 270.228L886.5 290.469L852.75 245.525L776.925 282.341L826.65 340.194L765.9 378.763L738 447.931L688.95 491.919L777.15 537.5" stroke="#2E2C21" stroke-width="0.25"/>
<path id="Vector_65" d="M895.5 378.763H765.9M954 212.375L980.325 270.547L1048.95 236.919L954 212.375ZM991.35 414.144L962.55 342.744L826.65 340.194L886.5 290.469L991.35 414.144ZM1125.9 378.763L962.55 342.744L1125.9 378.763Z" stroke="#2E2C21" stroke-width="0.25"/>
<path id="Vector_66" d="M765.9 378.763L602.55 342.744M620.1 270.388L776.925 282.341L886.5 290.469L962.55 342.744L979.875 270.228L1137.15 282.5L1066.05 329.994L1125.9 378.763L991.35 414.144L1048.95 491.919L620.1 270.388ZM852.75 245.525L979.875 270.228L852.75 245.525ZM980.1 525.388L852.75 500.525L980.1 525.388ZM738 192.931L777.15 282.5L738 192.931Z" stroke="#2E2C21" stroke-width="0.25"/>
</g>
<g id="Group_8">
<path id="Vector_67" d="M1066.05 331.588C1067.29 331.588 1068.3 330.874 1068.3 329.994C1068.3 329.114 1067.29 328.4 1066.05 328.4C1064.81 328.4 1063.8 329.114 1063.8 329.994C1063.8 330.874 1064.81 331.588 1066.05 331.588Z" fill="#2E2C21"/>
<path id="Vector_68" d="M962.55 344.338C963.793 344.338 964.8 343.624 964.8 342.744C964.8 341.864 963.793 341.15 962.55 341.15C961.307 341.15 960.3 341.864 960.3 342.744C960.3 343.624 961.307 344.338 962.55 344.338Z" fill="#2E2C21"/>
<path id="Vector_69" d="M991.35 415.738C992.593 415.738 993.6 415.024 993.6 414.144C993.6 413.264 992.593 412.55 991.35 412.55C990.107 412.55 989.1 413.264 989.1 414.144C989.1 415.024 990.107 415.738 991.35 415.738Z" fill="#2E2C21"/>
<path id="Vector_70" d="M1048.95 493.513C1050.19 493.513 1051.2 492.799 1051.2 491.919C1051.2 491.039 1050.19 490.325 1048.95 490.325C1047.71 490.325 1046.7 491.039 1046.7 491.919C1046.7 492.799 1047.71 493.513 1048.95 493.513Z" fill="#2E2C21"/>
<path id="Vector_71" d="M954 468.969C955.243 468.969 956.25 468.255 956.25 467.375C956.25 466.495 955.243 465.781 954 465.781C952.757 465.781 951.75 466.495 951.75 467.375C951.75 468.255 952.757 468.969 954 468.969Z" fill="#2E2C21"/>
<path id="Vector_72" d="M859.05 430.081C860.293 430.081 861.3 429.368 861.3 428.488C861.3 427.607 860.293 426.894 859.05 426.894C857.807 426.894 856.8 427.607 856.8 428.488C856.8 429.368 857.807 430.081 859.05 430.081Z" fill="#2E2C21"/>
<path id="Vector_73" d="M852.75 502.119C853.993 502.119 855 501.405 855 500.525C855 499.645 853.993 498.931 852.75 498.931C851.507 498.931 850.5 499.645 850.5 500.525C850.5 501.405 851.507 502.119 852.75 502.119Z" fill="#2E2C21"/>
<path id="Vector_74" d="M738 449.525C739.243 449.525 740.25 448.812 740.25 447.931C740.25 447.051 739.243 446.338 738 446.338C736.757 446.338 735.75 447.051 735.75 447.931C735.75 448.812 736.757 449.525 738 449.525Z" fill="#2E2C21"/>
<path id="Vector_75" d="M765.9 380.356C767.143 380.356 768.15 379.643 768.15 378.763C768.15 377.882 767.143 377.169 765.9 377.169C764.657 377.169 763.65 377.882 763.65 378.763C763.65 379.643 764.657 380.356 765.9 380.356Z" fill="#2E2C21"/>
<path id="Vector_76" d="M777.15 284.094C778.393 284.094 779.4 283.38 779.4 282.5C779.4 281.62 778.393 280.906 777.15 280.906C775.907 280.906 774.9 281.62 774.9 282.5C774.9 283.38 775.907 284.094 777.15 284.094Z" fill="#2E2C21"/>
<path id="Vector_77" d="M886.5 292.062C887.743 292.062 888.75 291.349 888.75 290.469C888.75 289.589 887.743 288.875 886.5 288.875C885.257 288.875 884.25 289.589 884.25 290.469C884.25 291.349 885.257 292.062 886.5 292.062Z" fill="#2E2C21"/>
<path id="Vector_78" d="M980.1 271.981C981.343 271.981 982.35 271.268 982.35 270.388C982.35 269.507 981.343 268.794 980.1 268.794C978.857 268.794 977.85 269.507 977.85 270.388C977.85 271.268 978.857 271.981 980.1 271.981Z" fill="#2E2C21"/>
<path id="Vector_79" d="M826.65 341.788C827.893 341.788 828.9 341.074 828.9 340.194C828.9 339.314 827.893 338.6 826.65 338.6C825.407 338.6 824.4 339.314 824.4 340.194C824.4 341.074 825.407 341.788 826.65 341.788Z" fill="#2E2C21"/>
<path id="Vector_80" d="M895.5 380.356C896.743 380.356 897.75 379.643 897.75 378.763C897.75 377.882 896.743 377.169 895.5 377.169C894.257 377.169 893.25 377.882 893.25 378.763C893.25 379.643 894.257 380.356 895.5 380.356Z" fill="#2E2C21"/>
</g>
</g>
<g id="endless-constellation 3" clip-path="url(#clip4)">
<path id="Vector_81" d="M360 512H0V769H360V512Z" fill="#73BDD7"/>
<g id="Group_9">
<path id="Vector_82" d="M417.15 794.7L328.95 748.761L234 724.025L139.05 684.833L18 704.429L132.75 757.435L56.925 794.539L18 704.429L-88.65 670.376L45.9 634.718L-13.95 585.566L56.925 537.539L-31.05 491.761M346.05 585.566L466.65 595.814L346.05 585.566Z" stroke="#2E2C21" stroke-width="0.25"/>
<path id="Vector_83" d="M166.5 802.731L132.75 757.435M-13.95 585.566L106.65 595.846L175.5 634.718L271.35 670.376L138.825 684.672L45.675 634.557L-13.95 585.566Z" stroke="#2E2C21" stroke-width="0.25"/>
<path id="Vector_84" d="M234 724.025L260.1 782.493L328.95 748.761L378 704.429L271.35 670.376L234 724.025ZM234 724.025L132.75 757.435L139.05 684.833L175.5 634.718L242.55 598.416L346.05 585.566L259.875 525.332L166.5 545.731L132.75 500.435L56.925 537.539L106.65 595.846L45.9 634.718L18 704.429L-31.05 748.761L57.15 794.7" stroke="#2E2C21" stroke-width="0.25"/>
<path id="Vector_85" d="M175.5 634.718H45.9M234 467.025L260.325 525.653L328.95 491.761L234 467.025ZM271.35 670.376L242.55 598.416L106.65 595.846L166.5 545.731L271.35 670.376ZM405.9 634.718L242.55 598.416L405.9 634.718Z" stroke="#2E2C21" stroke-width="0.25"/>
<path id="Vector_86" d="M45.9 634.718L-117.45 598.416M-99.9 525.493L56.925 537.539L166.5 545.731L242.55 598.416L259.875 525.332L417.15 537.7L346.05 585.566L405.9 634.718L271.35 670.376L328.95 748.761L-99.9 525.493ZM132.75 500.435L259.875 525.332L132.75 500.435ZM260.1 782.493L132.75 757.435L260.1 782.493ZM18 447.429L57.15 537.7L18 447.429Z" stroke="#2E2C21" stroke-width="0.25"/>
</g>
<g id="Group_10">
<path id="Vector_87" d="M346.05 587.172C347.293 587.172 348.3 586.453 348.3 585.566C348.3 584.679 347.293 583.96 346.05 583.96C344.807 583.96 343.8 584.679 343.8 585.566C343.8 586.453 344.807 587.172 346.05 587.172Z" fill="#2E2C21"/>
<path id="Vector_88" d="M242.55 600.022C243.793 600.022 244.8 599.303 244.8 598.416C244.8 597.529 243.793 596.81 242.55 596.81C241.307 596.81 240.3 597.529 240.3 598.416C240.3 599.303 241.307 600.022 242.55 600.022Z" fill="#2E2C21"/>
<path id="Vector_89" d="M271.35 671.983C272.593 671.983 273.6 671.263 273.6 670.376C273.6 669.489 272.593 668.77 271.35 668.77C270.107 668.77 269.1 669.489 269.1 670.376C269.1 671.263 270.107 671.983 271.35 671.983Z" fill="#2E2C21"/>
<path id="Vector_90" d="M328.95 750.368C330.193 750.368 331.2 749.648 331.2 748.761C331.2 747.874 330.193 747.155 328.95 747.155C327.707 747.155 326.7 747.874 326.7 748.761C326.7 749.648 327.707 750.368 328.95 750.368Z" fill="#2E2C21"/>
<path id="Vector_91" d="M234 725.631C235.243 725.631 236.25 724.912 236.25 724.025C236.25 723.138 235.243 722.419 234 722.419C232.757 722.419 231.75 723.138 231.75 724.025C231.75 724.912 232.757 725.631 234 725.631Z" fill="#2E2C21"/>
<path id="Vector_92" d="M139.05 686.439C140.293 686.439 141.3 685.72 141.3 684.832C141.3 683.945 140.293 683.226 139.05 683.226C137.807 683.226 136.8 683.945 136.8 684.832C136.8 685.72 137.807 686.439 139.05 686.439Z" fill="#2E2C21"/>
<path id="Vector_93" d="M132.75 759.041C133.993 759.041 135 758.322 135 757.435C135 756.548 133.993 755.829 132.75 755.829C131.507 755.829 130.5 756.548 130.5 757.435C130.5 758.322 131.507 759.041 132.75 759.041Z" fill="#2E2C21"/>
<path id="Vector_94" d="M18 706.035C19.2426 706.035 20.25 705.316 20.25 704.429C20.25 703.542 19.2426 702.823 18 702.823C16.7574 702.823 15.75 703.542 15.75 704.429C15.75 705.316 16.7574 706.035 18 706.035Z" fill="#2E2C21"/>
<path id="Vector_95" d="M45.9 636.324C47.1426 636.324 48.15 635.605 48.15 634.717C48.15 633.83 47.1426 633.111 45.9 633.111C44.6574 633.111 43.65 633.83 43.65 634.717C43.65 635.605 44.6574 636.324 45.9 636.324Z" fill="#2E2C21"/>
<path id="Vector_96" d="M57.15 539.306C58.3927 539.306 59.4 538.587 59.4 537.7C59.4 536.813 58.3927 536.094 57.15 536.094C55.9074 536.094 54.9 536.813 54.9 537.7C54.9 538.587 55.9074 539.306 57.15 539.306Z" fill="#2E2C21"/>
<path id="Vector_97" d="M166.5 547.338C167.743 547.338 168.75 546.618 168.75 545.731C168.75 544.844 167.743 544.125 166.5 544.125C165.257 544.125 164.25 544.844 164.25 545.731C164.25 546.618 165.257 547.338 166.5 547.338Z" fill="#2E2C21"/>
<path id="Vector_98" d="M260.1 527.099C261.343 527.099 262.35 526.38 262.35 525.492C262.35 524.605 261.343 523.886 260.1 523.886C258.857 523.886 257.85 524.605 257.85 525.492C257.85 526.38 258.857 527.099 260.1 527.099Z" fill="#2E2C21"/>
<path id="Vector_99" d="M106.65 597.452C107.893 597.452 108.9 596.733 108.9 595.846C108.9 594.959 107.893 594.24 106.65 594.24C105.407 594.24 104.4 594.959 104.4 595.846C104.4 596.733 105.407 597.452 106.65 597.452Z" fill="#2E2C21"/>
<path id="Vector_100" d="M175.5 636.324C176.743 636.324 177.75 635.605 177.75 634.717C177.75 633.83 176.743 633.111 175.5 633.111C174.257 633.111 173.25 633.83 173.25 634.717C173.25 635.605 174.257 636.324 175.5 636.324Z" fill="#2E2C21"/>
</g>
</g>
<g id="endless-constellation 11" clip-path="url(#clip5)">
<path id="Vector_101" d="M360 0H0V257H360V0Z" fill="#73BDD7"/>
<g id="Group_11">
<path id="Vector_102" d="M417.15 282.7L328.95 236.761L234 212.025L139.05 172.832L18 192.429L132.75 245.435L56.925 282.539L18 192.429L-88.65 158.376L45.9 122.717L-13.95 73.5662L56.925 25.5394L-31.05 -20.2388M346.05 73.5662L466.65 83.8141L346.05 73.5662Z" stroke="#2E2C21" stroke-width="0.25"/>
<path id="Vector_103" d="M166.5 290.731L132.75 245.435M-13.95 73.5663L106.65 83.8463L175.5 122.718L271.35 158.376L138.825 172.672L45.675 122.557L-13.95 73.5663Z" stroke="#2E2C21" stroke-width="0.25"/>
<path id="Vector_104" d="M234 212.025L260.1 270.493L328.95 236.761L378 192.429L271.35 158.376L234 212.025ZM234 212.025L132.75 245.435L139.05 172.833L175.5 122.718L242.55 86.4163L346.05 73.5663L259.875 13.3319L166.5 33.7313L132.75 -11.5649L56.925 25.5394L106.65 83.8463L45.9 122.718L18 192.429L-31.05 236.761L57.15 282.7" stroke="#2E2C21" stroke-width="0.25"/>
<path id="Vector_105" d="M175.5 122.718H45.9M234 -44.975L260.325 13.6532L328.95 -20.2387L234 -44.975ZM271.35 158.376L242.55 86.4163L106.65 83.8463L166.5 33.7313L271.35 158.376ZM405.9 122.718L242.55 86.4163L405.9 122.718Z" stroke="#2E2C21" stroke-width="0.25"/>
<path id="Vector_106" d="M45.9 122.717L-117.45 86.4163M-99.9 13.4925L56.925 25.5394L166.5 33.7313L242.55 86.4163L259.875 13.3319L417.15 25.7L346.05 73.5663L405.9 122.717L271.35 158.376L328.95 236.761L-99.9 13.4925ZM132.75 -11.565L259.875 13.3319L132.75 -11.565ZM260.1 270.492L132.75 245.435L260.1 270.492ZM18 -64.5712L57.15 25.7L18 -64.5712Z" stroke="#2E2C21" stroke-width="0.25"/>
</g>
<g id="Group_12">
<path id="Vector_107" d="M346.05 75.1726C347.293 75.1726 348.3 74.4534 348.3 73.5663C348.3 72.6792 347.293 71.9601 346.05 71.9601C344.807 71.9601 343.8 72.6792 343.8 73.5663C343.8 74.4534 344.807 75.1726 346.05 75.1726Z" fill="#2E2C21"/>
<path id="Vector_108" d="M242.55 88.0226C243.793 88.0226 244.8 87.3034 244.8 86.4163C244.8 85.5292 243.793 84.8101 242.55 84.8101C241.307 84.8101 240.3 85.5292 240.3 86.4163C240.3 87.3034 241.307 88.0226 242.55 88.0226Z" fill="#2E2C21"/>
<path id="Vector_109" d="M271.35 159.983C272.593 159.983 273.6 159.263 273.6 158.376C273.6 157.489 272.593 156.77 271.35 156.77C270.107 156.77 269.1 157.489 269.1 158.376C269.1 159.263 270.107 159.983 271.35 159.983Z" fill="#2E2C21"/>
<path id="Vector_110" d="M328.95 238.368C330.193 238.368 331.2 237.648 331.2 236.761C331.2 235.874 330.193 235.155 328.95 235.155C327.707 235.155 326.7 235.874 326.7 236.761C326.7 237.648 327.707 238.368 328.95 238.368Z" fill="#2E2C21"/>
<path id="Vector_111" d="M234 213.631C235.243 213.631 236.25 212.912 236.25 212.025C236.25 211.138 235.243 210.419 234 210.419C232.757 210.419 231.75 211.138 231.75 212.025C231.75 212.912 232.757 213.631 234 213.631Z" fill="#2E2C21"/>
<path id="Vector_112" d="M139.05 174.439C140.293 174.439 141.3 173.72 141.3 172.833C141.3 171.945 140.293 171.226 139.05 171.226C137.807 171.226 136.8 171.945 136.8 172.833C136.8 173.72 137.807 174.439 139.05 174.439Z" fill="#2E2C21"/>
<path id="Vector_113" d="M132.75 247.041C133.993 247.041 135 246.322 135 245.435C135 244.548 133.993 243.829 132.75 243.829C131.507 243.829 130.5 244.548 130.5 245.435C130.5 246.322 131.507 247.041 132.75 247.041Z" fill="#2E2C21"/>
<path id="Vector_114" d="M18 194.035C19.2426 194.035 20.25 193.316 20.25 192.429C20.25 191.542 19.2426 190.823 18 190.823C16.7574 190.823 15.75 191.542 15.75 192.429C15.75 193.316 16.7574 194.035 18 194.035Z" fill="#2E2C21"/>
<path id="Vector_115" d="M45.9 124.324C47.1426 124.324 48.15 123.605 48.15 122.718C48.15 121.83 47.1426 121.111 45.9 121.111C44.6574 121.111 43.65 121.83 43.65 122.718C43.65 123.605 44.6574 124.324 45.9 124.324Z" fill="#2E2C21"/>
<path id="Vector_116" d="M57.15 27.3063C58.3927 27.3063 59.4 26.5871 59.4 25.7C59.4 24.8129 58.3927 24.0938 57.15 24.0938C55.9074 24.0938 54.9 24.8129 54.9 25.7C54.9 26.5871 55.9074 27.3063 57.15 27.3063Z" fill="#2E2C21"/>
<path id="Vector_117" d="M166.5 35.3375C167.743 35.3375 168.75 34.6184 168.75 33.7313C168.75 32.8441 167.743 32.125 166.5 32.125C165.257 32.125 164.25 32.8441 164.25 33.7313C164.25 34.6184 165.257 35.3375 166.5 35.3375Z" fill="#2E2C21"/>
<path id="Vector_118" d="M260.1 15.0988C261.343 15.0988 262.35 14.3796 262.35 13.4925C262.35 12.6054 261.343 11.8863 260.1 11.8863C258.857 11.8863 257.85 12.6054 257.85 13.4925C257.85 14.3796 258.857 15.0988 260.1 15.0988Z" fill="#2E2C21"/>
<path id="Vector_119" d="M106.65 85.4525C107.893 85.4525 108.9 84.7334 108.9 83.8462C108.9 82.9591 107.893 82.24 106.65 82.24C105.407 82.24 104.4 82.9591 104.4 83.8462C104.4 84.7334 105.407 85.4525 106.65 85.4525Z" fill="#2E2C21"/>
<path id="Vector_120" d="M175.5 124.324C176.743 124.324 177.75 123.605 177.75 122.718C177.75 121.83 176.743 121.111 175.5 121.111C174.257 121.111 173.25 121.83 173.25 122.718C173.25 123.605 174.257 124.324 175.5 124.324Z" fill="#2E2C21"/>
</g>
</g>
<g id="endless-constellation 6" clip-path="url(#clip6)">
<path id="Vector_121" d="M1080 512H720V769H1080V512Z" fill="#73BDD7"/>
<g id="Group_13">
<path id="Vector_122" d="M1137.15 794.7L1048.95 748.761L954 724.025L859.05 684.833L738 704.429L852.75 757.435L776.925 794.539L738 704.429L631.35 670.376L765.9 634.718L706.05 585.566L776.925 537.539L688.95 491.761M1066.05 585.566L1186.65 595.814L1066.05 585.566Z" stroke="#2E2C21" stroke-width="0.25"/>
<path id="Vector_123" d="M886.5 802.731L852.75 757.435M706.05 585.566L826.65 595.846L895.5 634.718L991.35 670.376L858.825 684.672L765.675 634.557L706.05 585.566Z" stroke="#2E2C21" stroke-width="0.25"/>
<path id="Vector_124" d="M954 724.025L980.1 782.493L1048.95 748.761L1098 704.429L991.35 670.376L954 724.025ZM954 724.025L852.75 757.435L859.05 684.833L895.5 634.718L962.55 598.416L1066.05 585.566L979.875 525.332L886.5 545.731L852.75 500.435L776.925 537.539L826.65 595.846L765.9 634.718L738 704.429L688.95 748.761L777.15 794.7" stroke="#2E2C21" stroke-width="0.25"/>
<path id="Vector_125" d="M895.5 634.718H765.9M954 467.025L980.325 525.653L1048.95 491.761L954 467.025ZM991.35 670.376L962.55 598.416L826.65 595.846L886.5 545.731L991.35 670.376ZM1125.9 634.718L962.55 598.416L1125.9 634.718Z" stroke="#2E2C21" stroke-width="0.25"/>
<path id="Vector_126" d="M765.9 634.718L602.55 598.416M620.1 525.493L776.925 537.539L886.5 545.731L962.55 598.416L979.875 525.332L1137.15 537.7L1066.05 585.566L1125.9 634.718L991.35 670.376L1048.95 748.761L620.1 525.493ZM852.75 500.435L979.875 525.332L852.75 500.435ZM980.1 782.493L852.75 757.435L980.1 782.493ZM738 447.429L777.15 537.7L738 447.429Z" stroke="#2E2C21" stroke-width="0.25"/>
</g>
<g id="Group_14">
<path id="Vector_127" d="M1066.05 587.172C1067.29 587.172 1068.3 586.453 1068.3 585.566C1068.3 584.679 1067.29 583.96 1066.05 583.96C1064.81 583.96 1063.8 584.679 1063.8 585.566C1063.8 586.453 1064.81 587.172 1066.05 587.172Z" fill="#2E2C21"/>
<path id="Vector_128" d="M962.55 600.022C963.793 600.022 964.8 599.303 964.8 598.416C964.8 597.529 963.793 596.81 962.55 596.81C961.307 596.81 960.3 597.529 960.3 598.416C960.3 599.303 961.307 600.022 962.55 600.022Z" fill="#2E2C21"/>
<path id="Vector_129" d="M991.35 671.983C992.593 671.983 993.6 671.263 993.6 670.376C993.6 669.489 992.593 668.77 991.35 668.77C990.107 668.77 989.1 669.489 989.1 670.376C989.1 671.263 990.107 671.983 991.35 671.983Z" fill="#2E2C21"/>
<path id="Vector_130" d="M1048.95 750.368C1050.19 750.368 1051.2 749.648 1051.2 748.761C1051.2 747.874 1050.19 747.155 1048.95 747.155C1047.71 747.155 1046.7 747.874 1046.7 748.761C1046.7 749.648 1047.71 750.368 1048.95 750.368Z" fill="#2E2C21"/>
<path id="Vector_131" d="M954 725.631C955.243 725.631 956.25 724.912 956.25 724.025C956.25 723.138 955.243 722.419 954 722.419C952.757 722.419 951.75 723.138 951.75 724.025C951.75 724.912 952.757 725.631 954 725.631Z" fill="#2E2C21"/>
<path id="Vector_132" d="M859.05 686.439C860.293 686.439 861.3 685.72 861.3 684.832C861.3 683.945 860.293 683.226 859.05 683.226C857.807 683.226 856.8 683.945 856.8 684.832C856.8 685.72 857.807 686.439 859.05 686.439Z" fill="#2E2C21"/>
<path id="Vector_133" d="M852.75 759.041C853.993 759.041 855 758.322 855 757.435C855 756.548 853.993 755.829 852.75 755.829C851.507 755.829 850.5 756.548 850.5 757.435C850.5 758.322 851.507 759.041 852.75 759.041Z" fill="#2E2C21"/>
<path id="Vector_134" d="M738 706.035C739.243 706.035 740.25 705.316 740.25 704.429C740.25 703.542 739.243 702.823 738 702.823C736.757 702.823 735.75 703.542 735.75 704.429C735.75 705.316 736.757 706.035 738 706.035Z" fill="#2E2C21"/>
<path id="Vector_135" d="M765.9 636.324C767.143 636.324 768.15 635.605 768.15 634.717C768.15 633.83 767.143 633.111 765.9 633.111C764.657 633.111 763.65 633.83 763.65 634.717C763.65 635.605 764.657 636.324 765.9 636.324Z" fill="#2E2C21"/>
<path id="Vector_136" d="M777.15 539.306C778.393 539.306 779.4 538.587 779.4 537.7C779.4 536.813 778.393 536.094 777.15 536.094C775.907 536.094 774.9 536.813 774.9 537.7C774.9 538.587 775.907 539.306 777.15 539.306Z" fill="#2E2C21"/>
<path id="Vector_137" d="M886.5 547.338C887.743 547.338 888.75 546.618 888.75 545.731C888.75 544.844 887.743 544.125 886.5 544.125C885.257 544.125 884.25 544.844 884.25 545.731C884.25 546.618 885.257 547.338 886.5 547.338Z" fill="#2E2C21"/>
<path id="Vector_138" d="M980.1 527.099C981.343 527.099 982.35 526.38 982.35 525.492C982.35 524.605 981.343 523.886 980.1 523.886C978.857 523.886 977.85 524.605 977.85 525.492C977.85 526.38 978.857 527.099 980.1 527.099Z" fill="#2E2C21"/>
<path id="Vector_139" d="M826.65 597.452C827.893 597.452 828.9 596.733 828.9 595.846C828.9 594.959 827.893 594.24 826.65 594.24C825.407 594.24 824.4 594.959 824.4 595.846C824.4 596.733 825.407 597.452 826.65 597.452Z" fill="#2E2C21"/>
<path id="Vector_140" d="M895.5 636.324C896.743 636.324 897.75 635.605 897.75 634.717C897.75 633.83 896.743 633.111 895.5 633.111C894.257 633.111 893.25 633.83 893.25 634.717C893.25 635.605 894.257 636.324 895.5 636.324Z" fill="#2E2C21"/>
</g>
</g>
<g id="endless-constellation 12" clip-path="url(#clip7)">
<path id="Vector_141" d="M1080 0H720V257H1080V0Z" fill="#73BDD7"/>
<g id="Group_15">
<path id="Vector_142" d="M1137.15 282.7L1048.95 236.761L954 212.025L859.05 172.832L738 192.429L852.75 245.435L776.925 282.539L738 192.429L631.35 158.376L765.9 122.717L706.05 73.5662L776.925 25.5394L688.95 -20.2388M1066.05 73.5662L1186.65 83.8141L1066.05 73.5662Z" stroke="#2E2C21" stroke-width="0.25"/>
<path id="Vector_143" d="M886.5 290.731L852.75 245.435M706.05 73.5663L826.65 83.8463L895.5 122.718L991.35 158.376L858.825 172.672L765.675 122.557L706.05 73.5663Z" stroke="#2E2C21" stroke-width="0.25"/>
<path id="Vector_144" d="M954 212.025L980.1 270.493L1048.95 236.761L1098 192.429L991.35 158.376L954 212.025ZM954 212.025L852.75 245.435L859.05 172.833L895.5 122.718L962.55 86.4163L1066.05 73.5663L979.875 13.3319L886.5 33.7313L852.75 -11.5649L776.925 25.5394L826.65 83.8463L765.9 122.718L738 192.429L688.95 236.761L777.15 282.7" stroke="#2E2C21" stroke-width="0.25"/>
<path id="Vector_145" d="M895.5 122.718H765.9M954 -44.975L980.325 13.6532L1048.95 -20.2387L954 -44.975ZM991.35 158.376L962.55 86.4163L826.65 83.8463L886.5 33.7313L991.35 158.376ZM1125.9 122.718L962.55 86.4163L1125.9 122.718Z" stroke="#2E2C21" stroke-width="0.25"/>
<path id="Vector_146" d="M765.9 122.717L602.55 86.4163M620.1 13.4925L776.925 25.5394L886.5 33.7313L962.55 86.4163L979.875 13.3319L1137.15 25.7L1066.05 73.5663L1125.9 122.717L991.35 158.376L1048.95 236.761L620.1 13.4925ZM852.75 -11.565L979.875 13.3319L852.75 -11.565ZM980.1 270.492L852.75 245.435L980.1 270.492ZM738 -64.5712L777.15 25.7L738 -64.5712Z" stroke="#2E2C21" stroke-width="0.25"/>
</g>
<g id="Group_16">
<path id="Vector_147" d="M1066.05 75.1726C1067.29 75.1726 1068.3 74.4534 1068.3 73.5663C1068.3 72.6792 1067.29 71.9601 1066.05 71.9601C1064.81 71.9601 1063.8 72.6792 1063.8 73.5663C1063.8 74.4534 1064.81 75.1726 1066.05 75.1726Z" fill="#2E2C21"/>
<path id="Vector_148" d="M962.55 88.0226C963.793 88.0226 964.8 87.3034 964.8 86.4163C964.8 85.5292 963.793 84.8101 962.55 84.8101C961.307 84.8101 960.3 85.5292 960.3 86.4163C960.3 87.3034 961.307 88.0226 962.55 88.0226Z" fill="#2E2C21"/>
<path id="Vector_149" d="M991.35 159.983C992.593 159.983 993.6 159.263 993.6 158.376C993.6 157.489 992.593 156.77 991.35 156.77C990.107 156.77 989.1 157.489 989.1 158.376C989.1 159.263 990.107 159.983 991.35 159.983Z" fill="#2E2C21"/>
<path id="Vector_150" d="M1048.95 238.368C1050.19 238.368 1051.2 237.648 1051.2 236.761C1051.2 235.874 1050.19 235.155 1048.95 235.155C1047.71 235.155 1046.7 235.874 1046.7 236.761C1046.7 237.648 1047.71 238.368 1048.95 238.368Z" fill="#2E2C21"/>
<path id="Vector_151" d="M954 213.631C955.243 213.631 956.25 212.912 956.25 212.025C956.25 211.138 955.243 210.419 954 210.419C952.757 210.419 951.75 211.138 951.75 212.025C951.75 212.912 952.757 213.631 954 213.631Z" fill="#2E2C21"/>
<path id="Vector_152" d="M859.05 174.439C860.293 174.439 861.3 173.72 861.3 172.833C861.3 171.945 860.293 171.226 859.05 171.226C857.807 171.226 856.8 171.945 856.8 172.833C856.8 173.72 857.807 174.439 859.05 174.439Z" fill="#2E2C21"/>
<path id="Vector_153" d="M852.75 247.041C853.993 247.041 855 246.322 855 245.435C855 244.548 853.993 243.829 852.75 243.829C851.507 243.829 850.5 244.548 850.5 245.435C850.5 246.322 851.507 247.041 852.75 247.041Z" fill="#2E2C21"/>
<path id="Vector_154" d="M738 194.035C739.243 194.035 740.25 193.316 740.25 192.429C740.25 191.542 739.243 190.823 738 190.823C736.757 190.823 735.75 191.542 735.75 192.429C735.75 193.316 736.757 194.035 738 194.035Z" fill="#2E2C21"/>
<path id="Vector_155" d="M765.9 124.324C767.143 124.324 768.15 123.605 768.15 122.718C768.15 121.83 767.143 121.111 765.9 121.111C764.657 121.111 763.65 121.83 763.65 122.718C763.65 123.605 764.657 124.324 765.9 124.324Z" fill="#2E2C21"/>
<path id="Vector_156" d="M777.15 27.3063C778.393 27.3063 779.4 26.5871 779.4 25.7C779.4 24.8129 778.393 24.0938 777.15 24.0938C775.907 24.0938 774.9 24.8129 774.9 25.7C774.9 26.5871 775.907 27.3063 777.15 27.3063Z" fill="#2E2C21"/>
<path id="Vector_157" d="M886.5 35.3375C887.743 35.3375 888.75 34.6184 888.75 33.7313C888.75 32.8441 887.743 32.125 886.5 32.125C885.257 32.125 884.25 32.8441 884.25 33.7313C884.25 34.6184 885.257 35.3375 886.5 35.3375Z" fill="#2E2C21"/>
<path id="Vector_158" d="M980.1 15.0988C981.343 15.0988 982.35 14.3796 982.35 13.4925C982.35 12.6054 981.343 11.8863 980.1 11.8863C978.857 11.8863 977.85 12.6054 977.85 13.4925C977.85 14.3796 978.857 15.0988 980.1 15.0988Z" fill="#2E2C21"/>
<path id="Vector_159" d="M826.65 85.4525C827.893 85.4525 828.9 84.7334 828.9 83.8462C828.9 82.9591 827.893 82.24 826.65 82.24C825.407 82.24 824.4 82.9591 824.4 83.8462C824.4 84.7334 825.407 85.4525 826.65 85.4525Z" fill="#2E2C21"/>
<path id="Vector_160" d="M895.5 124.324C896.743 124.324 897.75 123.605 897.75 122.718C897.75 121.83 896.743 121.111 895.5 121.111C894.257 121.111 893.25 121.83 893.25 122.718C893.25 123.605 894.257 124.324 895.5 124.324Z" fill="#2E2C21"/>
</g>
</g>
<g id="endless-constellation 4" clip-path="url(#clip8)">
<path id="Vector_161" d="M720 512H360V769H720V512Z" fill="#73BDD7"/>
<g id="Group_17">
<path id="Vector_162" d="M777.15 794.7L688.95 748.761L594 724.025L499.05 684.833L378 704.429L492.75 757.435L416.925 794.539L378 704.429L271.35 670.376L405.9 634.718L346.05 585.566L416.925 537.539L328.95 491.761M706.05 585.566L826.65 595.814L706.05 585.566Z" stroke="#2E2C21" stroke-width="0.25"/>
<path id="Vector_163" d="M526.5 802.731L492.75 757.435M346.05 585.566L466.65 595.846L535.5 634.718L631.35 670.376L498.825 684.672L405.675 634.557L346.05 585.566Z" stroke="#2E2C21" stroke-width="0.25"/>
<path id="Vector_164" d="M594 724.025L620.1 782.493L688.95 748.761L738 704.429L631.35 670.376L594 724.025ZM594 724.025L492.75 757.435L499.05 684.833L535.5 634.718L602.55 598.416L706.05 585.566L619.875 525.332L526.5 545.731L492.75 500.435L416.925 537.539L466.65 595.846L405.9 634.718L378 704.429L328.95 748.761L417.15 794.7" stroke="#2E2C21" stroke-width="0.25"/>
<path id="Vector_165" d="M535.5 634.718H405.9M594 467.025L620.325 525.653L688.95 491.761L594 467.025ZM631.35 670.376L602.55 598.416L466.65 595.846L526.5 545.731L631.35 670.376ZM765.9 634.718L602.55 598.416L765.9 634.718Z" stroke="#2E2C21" stroke-width="0.25"/>
<path id="Vector_166" d="M405.9 634.718L242.55 598.416M260.1 525.493L416.925 537.539L526.5 545.731L602.55 598.416L619.875 525.332L777.15 537.7L706.05 585.566L765.9 634.718L631.35 670.376L688.95 748.761L260.1 525.493ZM492.75 500.435L619.875 525.332L492.75 500.435ZM620.1 782.493L492.75 757.435L620.1 782.493ZM378 447.429L417.15 537.7L378 447.429Z" stroke="#2E2C21" stroke-width="0.25"/>
</g>
<g id="Group_18">
<path id="Vector_167" d="M706.05 587.172C707.293 587.172 708.3 586.453 708.3 585.566C708.3 584.679 707.293 583.96 706.05 583.96C704.807 583.96 703.8 584.679 703.8 585.566C703.8 586.453 704.807 587.172 706.05 587.172Z" fill="#2E2C21"/>
<path id="Vector_168" d="M602.55 600.022C603.793 600.022 604.8 599.303 604.8 598.416C604.8 597.529 603.793 596.81 602.55 596.81C601.307 596.81 600.3 597.529 600.3 598.416C600.3 599.303 601.307 600.022 602.55 600.022Z" fill="#2E2C21"/>
<path id="Vector_169" d="M631.35 671.983C632.593 671.983 633.6 671.263 633.6 670.376C633.6 669.489 632.593 668.77 631.35 668.77C630.107 668.77 629.1 669.489 629.1 670.376C629.1 671.263 630.107 671.983 631.35 671.983Z" fill="#2E2C21"/>
<path id="Vector_170" d="M688.95 750.368C690.193 750.368 691.2 749.648 691.2 748.761C691.2 747.874 690.193 747.155 688.95 747.155C687.707 747.155 686.7 747.874 686.7 748.761C686.7 749.648 687.707 750.368 688.95 750.368Z" fill="#2E2C21"/>
<path id="Vector_171" d="M594 725.631C595.243 725.631 596.25 724.912 596.25 724.025C596.25 723.138 595.243 722.419 594 722.419C592.757 722.419 591.75 723.138 591.75 724.025C591.75 724.912 592.757 725.631 594 725.631Z" fill="#2E2C21"/>
<path id="Vector_172" d="M499.05 686.439C500.293 686.439 501.3 685.72 501.3 684.832C501.3 683.945 500.293 683.226 499.05 683.226C497.807 683.226 496.8 683.945 496.8 684.832C496.8 685.72 497.807 686.439 499.05 686.439Z" fill="#2E2C21"/>
<path id="Vector_173" d="M492.75 759.041C493.993 759.041 495 758.322 495 757.435C495 756.548 493.993 755.829 492.75 755.829C491.507 755.829 490.5 756.548 490.5 757.435C490.5 758.322 491.507 759.041 492.75 759.041Z" fill="#2E2C21"/>
<path id="Vector_174" d="M378 706.035C379.243 706.035 380.25 705.316 380.25 704.429C380.25 703.542 379.243 702.823 378 702.823C376.757 702.823 375.75 703.542 375.75 704.429C375.75 705.316 376.757 706.035 378 706.035Z" fill="#2E2C21"/>
<path id="Vector_175" d="M405.9 636.324C407.143 636.324 408.15 635.605 408.15 634.717C408.15 633.83 407.143 633.111 405.9 633.111C404.657 633.111 403.65 633.83 403.65 634.717C403.65 635.605 404.657 636.324 405.9 636.324Z" fill="#2E2C21"/>
<path id="Vector_176" d="M417.15 539.306C418.393 539.306 419.4 538.587 419.4 537.7C419.4 536.813 418.393 536.094 417.15 536.094C415.907 536.094 414.9 536.813 414.9 537.7C414.9 538.587 415.907 539.306 417.15 539.306Z" fill="#2E2C21"/>
<path id="Vector_177" d="M526.5 547.338C527.743 547.338 528.75 546.618 528.75 545.731C528.75 544.844 527.743 544.125 526.5 544.125C525.257 544.125 524.25 544.844 524.25 545.731C524.25 546.618 525.257 547.338 526.5 547.338Z" fill="#2E2C21"/>
<path id="Vector_178" d="M620.1 527.099C621.343 527.099 622.35 526.38 622.35 525.492C622.35 524.605 621.343 523.886 620.1 523.886C618.857 523.886 617.85 524.605 617.85 525.492C617.85 526.38 618.857 527.099 620.1 527.099Z" fill="#2E2C21"/>
<path id="Vector_179" d="M466.65 597.452C467.893 597.452 468.9 596.733 468.9 595.846C468.9 594.959 467.893 594.24 466.65 594.24C465.407 594.24 464.4 594.959 464.4 595.846C464.4 596.733 465.407 597.452 466.65 597.452Z" fill="#2E2C21"/>
<path id="Vector_180" d="M535.5 636.324C536.743 636.324 537.75 635.605 537.75 634.717C537.75 633.83 536.743 633.111 535.5 633.111C534.257 633.111 533.25 633.83 533.25 634.717C533.25 635.605 534.257 636.324 535.5 636.324Z" fill="#2E2C21"/>
</g>
</g>
<g id="endless-constellation 13" clip-path="url(#clip9)">
<path id="Vector_181" d="M720 0H360V257H720V0Z" fill="#73BDD7"/>
<g id="Group_19">
<path id="Vector_182" d="M777.15 282.7L688.95 236.761L594 212.025L499.05 172.832L378 192.429L492.75 245.435L416.925 282.539L378 192.429L271.35 158.376L405.9 122.717L346.05 73.5662L416.925 25.5394L328.95 -20.2388M706.05 73.5662L826.65 83.8141L706.05 73.5662Z" stroke="#2E2C21" stroke-width="0.25"/>
<path id="Vector_183" d="M526.5 290.731L492.75 245.435M346.05 73.5663L466.65 83.8463L535.5 122.718L631.35 158.376L498.825 172.672L405.675 122.557L346.05 73.5663Z" stroke="#2E2C21" stroke-width="0.25"/>
<path id="Vector_184" d="M594 212.025L620.1 270.493L688.95 236.761L738 192.429L631.35 158.376L594 212.025ZM594 212.025L492.75 245.435L499.05 172.833L535.5 122.718L602.55 86.4163L706.05 73.5663L619.875 13.3319L526.5 33.7313L492.75 -11.5649L416.925 25.5394L466.65 83.8463L405.9 122.718L378 192.429L328.95 236.761L417.15 282.7" stroke="#2E2C21" stroke-width="0.25"/>
<path id="Vector_185" d="M535.5 122.718H405.9M594 -44.975L620.325 13.6532L688.95 -20.2387L594 -44.975ZM631.35 158.376L602.55 86.4163L466.65 83.8463L526.5 33.7313L631.35 158.376ZM765.9 122.718L602.55 86.4163L765.9 122.718Z" stroke="#2E2C21" stroke-width="0.25"/>
<path id="Vector_186" d="M405.9 122.717L242.55 86.4163M260.1 13.4925L416.925 25.5394L526.5 33.7313L602.55 86.4163L619.875 13.3319L777.15 25.7L706.05 73.5663L765.9 122.717L631.35 158.376L688.95 236.761L260.1 13.4925ZM492.75 -11.565L619.875 13.3319L492.75 -11.565ZM620.1 270.492L492.75 245.435L620.1 270.492ZM378 -64.5712L417.15 25.7L378 -64.5712Z" stroke="#2E2C21" stroke-width="0.25"/>
</g>
<g id="Group_20">
<path id="Vector_187" d="M706.05 75.1726C707.293 75.1726 708.3 74.4534 708.3 73.5663C708.3 72.6792 707.293 71.9601 706.05 71.9601C704.807 71.9601 703.8 72.6792 703.8 73.5663C703.8 74.4534 704.807 75.1726 706.05 75.1726Z" fill="#2E2C21"/>
<path id="Vector_188" d="M602.55 88.0226C603.793 88.0226 604.8 87.3034 604.8 86.4163C604.8 85.5292 603.793 84.8101 602.55 84.8101C601.307 84.8101 600.3 85.5292 600.3 86.4163C600.3 87.3034 601.307 88.0226 602.55 88.0226Z" fill="#2E2C21"/>
<path id="Vector_189" d="M631.35 159.983C632.593 159.983 633.6 159.263 633.6 158.376C633.6 157.489 632.593 156.77 631.35 156.77C630.107 156.77 629.1 157.489 629.1 158.376C629.1 159.263 630.107 159.983 631.35 159.983Z" fill="#2E2C21"/>
<path id="Vector_190" d="M688.95 238.368C690.193 238.368 691.2 237.648 691.2 236.761C691.2 235.874 690.193 235.155 688.95 235.155C687.707 235.155 686.7 235.874 686.7 236.761C686.7 237.648 687.707 238.368 688.95 238.368Z" fill="#2E2C21"/>
<path id="Vector_191" d="M594 213.631C595.243 213.631 596.25 212.912 596.25 212.025C596.25 211.138 595.243 210.419 594 210.419C592.757 210.419 591.75 211.138 591.75 212.025C591.75 212.912 592.757 213.631 594 213.631Z" fill="#2E2C21"/>
<path id="Vector_192" d="M499.05 174.439C500.293 174.439 501.3 173.72 501.3 172.833C501.3 171.945 500.293 171.226 499.05 171.226C497.807 171.226 496.8 171.945 496.8 172.833C496.8 173.72 497.807 174.439 499.05 174.439Z" fill="#2E2C21"/>
<path id="Vector_193" d="M492.75 247.041C493.993 247.041 495 246.322 495 245.435C495 244.548 493.993 243.829 492.75 243.829C491.507 243.829 490.5 244.548 490.5 245.435C490.5 246.322 491.507 247.041 492.75 247.041Z" fill="#2E2C21"/>
<path id="Vector_194" d="M378 194.035C379.243 194.035 380.25 193.316 380.25 192.429C380.25 191.542 379.243 190.823 378 190.823C376.757 190.823 375.75 191.542 375.75 192.429C375.75 193.316 376.757 194.035 378 194.035Z" fill="#2E2C21"/>
<path id="Vector_195" d="M405.9 124.324C407.143 124.324 408.15 123.605 408.15 122.718C408.15 121.83 407.143 121.111 405.9 121.111C404.657 121.111 403.65 121.83 403.65 122.718C403.65 123.605 404.657 124.324 405.9 124.324Z" fill="#2E2C21"/>
<path id="Vector_196" d="M417.15 27.3063C418.393 27.3063 419.4 26.5871 419.4 25.7C419.4 24.8129 418.393 24.0938 417.15 24.0938C415.907 24.0938 414.9 24.8129 414.9 25.7C414.9 26.5871 415.907 27.3063 417.15 27.3063Z" fill="#2E2C21"/>
<path id="Vector_197" d="M526.5 35.3375C527.743 35.3375 528.75 34.6184 528.75 33.7313C528.75 32.8441 527.743 32.125 526.5 32.125C525.257 32.125 524.25 32.8441 524.25 33.7313C524.25 34.6184 525.257 35.3375 526.5 35.3375Z" fill="#2E2C21"/>
<path id="Vector_198" d="M620.1 15.0988C621.343 15.0988 622.35 14.3796 622.35 13.4925C622.35 12.6054 621.343 11.8863 620.1 11.8863C618.857 11.8863 617.85 12.6054 617.85 13.4925C617.85 14.3796 618.857 15.0988 620.1 15.0988Z" fill="#2E2C21"/>
<path id="Vector_199" d="M466.65 85.4525C467.893 85.4525 468.9 84.7334 468.9 83.8462C468.9 82.9591 467.893 82.24 466.65 82.24C465.407 82.24 464.4 82.9591 464.4 83.8462C464.4 84.7334 465.407 85.4525 466.65 85.4525Z" fill="#2E2C21"/>
<path id="Vector_200" d="M535.5 124.324C536.743 124.324 537.75 123.605 537.75 122.718C537.75 121.83 536.743 121.111 535.5 121.111C534.257 121.111 533.25 121.83 533.25 122.718C533.25 123.605 534.257 124.324 535.5 124.324Z" fill="#2E2C21"/>
</g>
</g>
<g id="endless-constellation 7" clip-path="url(#clip10)">
<path id="Vector_201" d="M1440 512H1080V769H1440V512Z" fill="#73BDD7"/>
<g id="Group_21">
<path id="Vector_202" d="M1497.15 794.7L1408.95 748.761L1314 724.025L1219.05 684.833L1098 704.429L1212.75 757.435L1136.92 794.539L1098 704.429L991.35 670.376L1125.9 634.718L1066.05 585.566L1136.92 537.539L1048.95 491.761M1426.05 585.566L1546.65 595.814L1426.05 585.566Z" stroke="#2E2C21" stroke-width="0.25"/>
<path id="Vector_203" d="M1246.5 802.731L1212.75 757.435M1066.05 585.566L1186.65 595.846L1255.5 634.718L1351.35 670.376L1218.83 684.672L1125.67 634.557L1066.05 585.566Z" stroke="#2E2C21" stroke-width="0.25"/>
<path id="Vector_204" d="M1314 724.025L1340.1 782.493L1408.95 748.761L1458 704.429L1351.35 670.376L1314 724.025ZM1314 724.025L1212.75 757.435L1219.05 684.833L1255.5 634.718L1322.55 598.416L1426.05 585.566L1339.87 525.332L1246.5 545.731L1212.75 500.435L1136.92 537.539L1186.65 595.846L1125.9 634.718L1098 704.429L1048.95 748.761L1137.15 794.7" stroke="#2E2C21" stroke-width="0.25"/>
<path id="Vector_205" d="M1255.5 634.718H1125.9M1314 467.025L1340.33 525.653L1408.95 491.761L1314 467.025ZM1351.35 670.376L1322.55 598.416L1186.65 595.846L1246.5 545.731L1351.35 670.376ZM1485.9 634.718L1322.55 598.416L1485.9 634.718Z" stroke="#2E2C21" stroke-width="0.25"/>
<path id="Vector_206" d="M1125.9 634.718L962.55 598.416M980.1 525.493L1136.93 537.539L1246.5 545.731L1322.55 598.416L1339.88 525.332L1497.15 537.7L1426.05 585.566L1485.9 634.718L1351.35 670.376L1408.95 748.761L980.1 525.493ZM1212.75 500.435L1339.88 525.332L1212.75 500.435ZM1340.1 782.493L1212.75 757.435L1340.1 782.493ZM1098 447.429L1137.15 537.7L1098 447.429Z" stroke="#2E2C21" stroke-width="0.25"/>
</g>
<g id="Group_22">
<path id="Vector_207" d="M1426.05 587.172C1427.29 587.172 1428.3 586.453 1428.3 585.566C1428.3 584.679 1427.29 583.96 1426.05 583.96C1424.81 583.96 1423.8 584.679 1423.8 585.566C1423.8 586.453 1424.81 587.172 1426.05 587.172Z" fill="#2E2C21"/>
<path id="Vector_208" d="M1322.55 600.022C1323.79 600.022 1324.8 599.303 1324.8 598.416C1324.8 597.529 1323.79 596.81 1322.55 596.81C1321.31 596.81 1320.3 597.529 1320.3 598.416C1320.3 599.303 1321.31 600.022 1322.55 600.022Z" fill="#2E2C21"/>
<path id="Vector_209" d="M1351.35 671.983C1352.59 671.983 1353.6 671.263 1353.6 670.376C1353.6 669.489 1352.59 668.77 1351.35 668.77C1350.11 668.77 1349.1 669.489 1349.1 670.376C1349.1 671.263 1350.11 671.983 1351.35 671.983Z" fill="#2E2C21"/>
<path id="Vector_210" d="M1408.95 750.368C1410.19 750.368 1411.2 749.648 1411.2 748.761C1411.2 747.874 1410.19 747.155 1408.95 747.155C1407.71 747.155 1406.7 747.874 1406.7 748.761C1406.7 749.648 1407.71 750.368 1408.95 750.368Z" fill="#2E2C21"/>
<path id="Vector_211" d="M1314 725.631C1315.24 725.631 1316.25 724.912 1316.25 724.025C1316.25 723.138 1315.24 722.419 1314 722.419C1312.76 722.419 1311.75 723.138 1311.75 724.025C1311.75 724.912 1312.76 725.631 1314 725.631Z" fill="#2E2C21"/>
<path id="Vector_212" d="M1219.05 686.439C1220.29 686.439 1221.3 685.72 1221.3 684.832C1221.3 683.945 1220.29 683.226 1219.05 683.226C1217.81 683.226 1216.8 683.945 1216.8 684.832C1216.8 685.72 1217.81 686.439 1219.05 686.439Z" fill="#2E2C21"/>
<path id="Vector_213" d="M1212.75 759.041C1213.99 759.041 1215 758.322 1215 757.435C1215 756.548 1213.99 755.829 1212.75 755.829C1211.51 755.829 1210.5 756.548 1210.5 757.435C1210.5 758.322 1211.51 759.041 1212.75 759.041Z" fill="#2E2C21"/>
<path id="Vector_214" d="M1098 706.035C1099.24 706.035 1100.25 705.316 1100.25 704.429C1100.25 703.542 1099.24 702.823 1098 702.823C1096.76 702.823 1095.75 703.542 1095.75 704.429C1095.75 705.316 1096.76 706.035 1098 706.035Z" fill="#2E2C21"/>
<path id="Vector_215" d="M1125.9 636.324C1127.14 636.324 1128.15 635.605 1128.15 634.717C1128.15 633.83 1127.14 633.111 1125.9 633.111C1124.66 633.111 1123.65 633.83 1123.65 634.717C1123.65 635.605 1124.66 636.324 1125.9 636.324Z" fill="#2E2C21"/>
<path id="Vector_216" d="M1137.15 539.306C1138.39 539.306 1139.4 538.587 1139.4 537.7C1139.4 536.813 1138.39 536.094 1137.15 536.094C1135.91 536.094 1134.9 536.813 1134.9 537.7C1134.9 538.587 1135.91 539.306 1137.15 539.306Z" fill="#2E2C21"/>
<path id="Vector_217" d="M1246.5 547.338C1247.74 547.338 1248.75 546.618 1248.75 545.731C1248.75 544.844 1247.74 544.125 1246.5 544.125C1245.26 544.125 1244.25 544.844 1244.25 545.731C1244.25 546.618 1245.26 547.338 1246.5 547.338Z" fill="#2E2C21"/>
<path id="Vector_218" d="M1340.1 527.099C1341.34 527.099 1342.35 526.38 1342.35 525.492C1342.35 524.605 1341.34 523.886 1340.1 523.886C1338.86 523.886 1337.85 524.605 1337.85 525.492C1337.85 526.38 1338.86 527.099 1340.1 527.099Z" fill="#2E2C21"/>
<path id="Vector_219" d="M1186.65 597.452C1187.89 597.452 1188.9 596.733 1188.9 595.846C1188.9 594.959 1187.89 594.24 1186.65 594.24C1185.41 594.24 1184.4 594.959 1184.4 595.846C1184.4 596.733 1185.41 597.452 1186.65 597.452Z" fill="#2E2C21"/>
<path id="Vector_220" d="M1255.5 636.324C1256.74 636.324 1257.75 635.605 1257.75 634.717C1257.75 633.83 1256.74 633.111 1255.5 633.111C1254.26 633.111 1253.25 633.83 1253.25 634.717C1253.25 635.605 1254.26 636.324 1255.5 636.324Z" fill="#2E2C21"/>
</g>
</g>
<g id="endless-constellation 14" clip-path="url(#clip11)">
<path id="Vector_221" d="M1440 0H1080V257H1440V0Z" fill="#73BDD7"/>
<g id="Group_23">
<path id="Vector_222" d="M1497.15 282.7L1408.95 236.761L1314 212.025L1219.05 172.832L1098 192.429L1212.75 245.435L1136.92 282.539L1098 192.429L991.35 158.376L1125.9 122.717L1066.05 73.5662L1136.92 25.5394L1048.95 -20.2388M1426.05 73.5662L1546.65 83.8141L1426.05 73.5662Z" stroke="#2E2C21" stroke-width="0.25"/>
<path id="Vector_223" d="M1246.5 290.731L1212.75 245.435M1066.05 73.5663L1186.65 83.8463L1255.5 122.718L1351.35 158.376L1218.83 172.672L1125.67 122.557L1066.05 73.5663Z" stroke="#2E2C21" stroke-width="0.25"/>
<path id="Vector_224" d="M1314 212.025L1340.1 270.493L1408.95 236.761L1458 192.429L1351.35 158.376L1314 212.025ZM1314 212.025L1212.75 245.435L1219.05 172.833L1255.5 122.718L1322.55 86.4163L1426.05 73.5663L1339.87 13.3319L1246.5 33.7313L1212.75 -11.5649L1136.92 25.5394L1186.65 83.8463L1125.9 122.718L1098 192.429L1048.95 236.761L1137.15 282.7" stroke="#2E2C21" stroke-width="0.25"/>
<path id="Vector_225" d="M1255.5 122.718H1125.9M1314 -44.975L1340.33 13.6532L1408.95 -20.2387L1314 -44.975ZM1351.35 158.376L1322.55 86.4163L1186.65 83.8463L1246.5 33.7313L1351.35 158.376ZM1485.9 122.718L1322.55 86.4163L1485.9 122.718Z" stroke="#2E2C21" stroke-width="0.25"/>
<path id="Vector_226" d="M1125.9 122.717L962.55 86.4163M980.1 13.4925L1136.93 25.5394L1246.5 33.7313L1322.55 86.4163L1339.88 13.3319L1497.15 25.7L1426.05 73.5663L1485.9 122.717L1351.35 158.376L1408.95 236.761L980.1 13.4925ZM1212.75 -11.565L1339.88 13.3319L1212.75 -11.565ZM1340.1 270.492L1212.75 245.435L1340.1 270.492ZM1098 -64.5712L1137.15 25.7L1098 -64.5712Z" stroke="#2E2C21" stroke-width="0.25"/>
</g>
<g id="Group_24">
<path id="Vector_227" d="M1426.05 75.1726C1427.29 75.1726 1428.3 74.4534 1428.3 73.5663C1428.3 72.6792 1427.29 71.9601 1426.05 71.9601C1424.81 71.9601 1423.8 72.6792 1423.8 73.5663C1423.8 74.4534 1424.81 75.1726 1426.05 75.1726Z" fill="#2E2C21"/>
<path id="Vector_228" d="M1322.55 88.0226C1323.79 88.0226 1324.8 87.3034 1324.8 86.4163C1324.8 85.5292 1323.79 84.8101 1322.55 84.8101C1321.31 84.8101 1320.3 85.5292 1320.3 86.4163C1320.3 87.3034 1321.31 88.0226 1322.55 88.0226Z" fill="#2E2C21"/>
<path id="Vector_229" d="M1351.35 159.983C1352.59 159.983 1353.6 159.263 1353.6 158.376C1353.6 157.489 1352.59 156.77 1351.35 156.77C1350.11 156.77 1349.1 157.489 1349.1 158.376C1349.1 159.263 1350.11 159.983 1351.35 159.983Z" fill="#2E2C21"/>
<path id="Vector_230" d="M1408.95 238.368C1410.19 238.368 1411.2 237.648 1411.2 236.761C1411.2 235.874 1410.19 235.155 1408.95 235.155C1407.71 235.155 1406.7 235.874 1406.7 236.761C1406.7 237.648 1407.71 238.368 1408.95 238.368Z" fill="#2E2C21"/>
<path id="Vector_231" d="M1314 213.631C1315.24 213.631 1316.25 212.912 1316.25 212.025C1316.25 211.138 1315.24 210.419 1314 210.419C1312.76 210.419 1311.75 211.138 1311.75 212.025C1311.75 212.912 1312.76 213.631 1314 213.631Z" fill="#2E2C21"/>
<path id="Vector_232" d="M1219.05 174.439C1220.29 174.439 1221.3 173.72 1221.3 172.833C1221.3 171.945 1220.29 171.226 1219.05 171.226C1217.81 171.226 1216.8 171.945 1216.8 172.833C1216.8 173.72 1217.81 174.439 1219.05 174.439Z" fill="#2E2C21"/>
<path id="Vector_233" d="M1212.75 247.041C1213.99 247.041 1215 246.322 1215 245.435C1215 244.548 1213.99 243.829 1212.75 243.829C1211.51 243.829 1210.5 244.548 1210.5 245.435C1210.5 246.322 1211.51 247.041 1212.75 247.041Z" fill="#2E2C21"/>
<path id="Vector_234" d="M1098 194.035C1099.24 194.035 1100.25 193.316 1100.25 192.429C1100.25 191.542 1099.24 190.823 1098 190.823C1096.76 190.823 1095.75 191.542 1095.75 192.429C1095.75 193.316 1096.76 194.035 1098 194.035Z" fill="#2E2C21"/>
<path id="Vector_235" d="M1125.9 124.324C1127.14 124.324 1128.15 123.605 1128.15 122.718C1128.15 121.83 1127.14 121.111 1125.9 121.111C1124.66 121.111 1123.65 121.83 1123.65 122.718C1123.65 123.605 1124.66 124.324 1125.9 124.324Z" fill="#2E2C21"/>
<path id="Vector_236" d="M1137.15 27.3063C1138.39 27.3063 1139.4 26.5871 1139.4 25.7C1139.4 24.8129 1138.39 24.0938 1137.15 24.0938C1135.91 24.0938 1134.9 24.8129 1134.9 25.7C1134.9 26.5871 1135.91 27.3063 1137.15 27.3063Z" fill="#2E2C21"/>
<path id="Vector_237" d="M1246.5 35.3375C1247.74 35.3375 1248.75 34.6184 1248.75 33.7313C1248.75 32.8441 1247.74 32.125 1246.5 32.125C1245.26 32.125 1244.25 32.8441 1244.25 33.7313C1244.25 34.6184 1245.26 35.3375 1246.5 35.3375Z" fill="#2E2C21"/>
<path id="Vector_238" d="M1340.1 15.0988C1341.34 15.0988 1342.35 14.3796 1342.35 13.4925C1342.35 12.6054 1341.34 11.8863 1340.1 11.8863C1338.86 11.8863 1337.85 12.6054 1337.85 13.4925C1337.85 14.3796 1338.86 15.0988 1340.1 15.0988Z" fill="#2E2C21"/>
<path id="Vector_239" d="M1186.65 85.4525C1187.89 85.4525 1188.9 84.7334 1188.9 83.8462C1188.9 82.9591 1187.89 82.24 1186.65 82.24C1185.41 82.24 1184.4 82.9591 1184.4 83.8462C1184.4 84.7334 1185.41 85.4525 1186.65 85.4525Z" fill="#2E2C21"/>
<path id="Vector_240" d="M1255.5 124.324C1256.74 124.324 1257.75 123.605 1257.75 122.718C1257.75 121.83 1256.74 121.111 1255.5 121.111C1254.26 121.111 1253.25 121.83 1253.25 122.718C1253.25 123.605 1254.26 124.324 1255.5 124.324Z" fill="#2E2C21"/>
</g>
</g>
<g id="endless-constellation 2" clip-path="url(#clip12)">
<path id="Vector_241" d="M720 769H360V1024H720V769Z" fill="#73BDD7"/>
<g id="Group_25">
<path id="Vector_242" d="M777.15 1049.5L688.95 1003.92L594 979.375L499.05 940.487L378 959.931L492.75 1012.52L416.925 1049.34L378 959.931L271.35 926.144L405.9 890.762L346.05 841.994L416.925 794.341L328.95 748.919M706.05 841.994L826.65 852.162L706.05 841.994Z" stroke="#2E2C21" stroke-width="0.25"/>
<path id="Vector_243" d="M526.5 1057.47L492.75 1012.53M346.05 841.994L466.65 852.194L535.5 890.763L631.35 926.144L498.825 940.328L405.675 890.603L346.05 841.994Z" stroke="#2E2C21" stroke-width="0.25"/>
<path id="Vector_244" d="M594 979.375L620.1 1037.39L688.95 1003.92L738 959.931L631.35 926.144L594 979.375ZM594 979.375L492.75 1012.53L499.05 940.488L535.5 890.763L602.55 854.744L706.05 841.994L619.875 782.228L526.5 802.469L492.75 757.525L416.925 794.341L466.65 852.194L405.9 890.763L378 959.931L328.95 1003.92L417.15 1049.5" stroke="#2E2C21" stroke-width="0.25"/>
<path id="Vector_245" d="M535.5 890.763H405.9M594 724.375L620.325 782.547L688.95 748.919L594 724.375ZM631.35 926.144L602.55 854.744L466.65 852.194L526.5 802.469L631.35 926.144ZM765.9 890.763L602.55 854.744L765.9 890.763Z" stroke="#2E2C21" stroke-width="0.25"/>
<path id="Vector_246" d="M405.9 890.763L242.55 854.744M260.1 782.388L416.925 794.341L526.5 802.469L602.55 854.744L619.875 782.228L777.15 794.5L706.05 841.994L765.9 890.763L631.35 926.144L688.95 1003.92L260.1 782.388ZM492.75 757.525L619.875 782.228L492.75 757.525ZM620.1 1037.39L492.75 1012.53L620.1 1037.39ZM378 704.931L417.15 794.5L378 704.931Z" stroke="#2E2C21" stroke-width="0.25"/>
</g>
<g id="Group_26">
<path id="Vector_247" d="M706.05 843.588C707.293 843.588 708.3 842.874 708.3 841.994C708.3 841.114 707.293 840.4 706.05 840.4C704.807 840.4 703.8 841.114 703.8 841.994C703.8 842.874 704.807 843.588 706.05 843.588Z" fill="#2E2C21"/>
<path id="Vector_248" d="M602.55 856.338C603.793 856.338 604.8 855.624 604.8 854.744C604.8 853.864 603.793 853.15 602.55 853.15C601.307 853.15 600.3 853.864 600.3 854.744C600.3 855.624 601.307 856.338 602.55 856.338Z" fill="#2E2C21"/>
<path id="Vector_249" d="M631.35 927.738C632.593 927.738 633.6 927.024 633.6 926.144C633.6 925.264 632.593 924.55 631.35 924.55C630.107 924.55 629.1 925.264 629.1 926.144C629.1 927.024 630.107 927.738 631.35 927.738Z" fill="#2E2C21"/>
<path id="Vector_250" d="M688.95 1005.51C690.193 1005.51 691.2 1004.8 691.2 1003.92C691.2 1003.04 690.193 1002.33 688.95 1002.33C687.707 1002.33 686.7 1003.04 686.7 1003.92C686.7 1004.8 687.707 1005.51 688.95 1005.51Z" fill="#2E2C21"/>
<path id="Vector_251" d="M594 980.969C595.243 980.969 596.25 980.255 596.25 979.375C596.25 978.495 595.243 977.781 594 977.781C592.757 977.781 591.75 978.495 591.75 979.375C591.75 980.255 592.757 980.969 594 980.969Z" fill="#2E2C21"/>
<path id="Vector_252" d="M499.05 942.081C500.293 942.081 501.3 941.368 501.3 940.488C501.3 939.607 500.293 938.894 499.05 938.894C497.807 938.894 496.8 939.607 496.8 940.488C496.8 941.368 497.807 942.081 499.05 942.081Z" fill="#2E2C21"/>
<path id="Vector_253" d="M492.75 1014.12C493.993 1014.12 495 1013.41 495 1012.53C495 1011.64 493.993 1010.93 492.75 1010.93C491.507 1010.93 490.5 1011.64 490.5 1012.53C490.5 1013.41 491.507 1014.12 492.75 1014.12Z" fill="#2E2C21"/>
<path id="Vector_254" d="M378 961.525C379.243 961.525 380.25 960.812 380.25 959.931C380.25 959.051 379.243 958.338 378 958.338C376.757 958.338 375.75 959.051 375.75 959.931C375.75 960.812 376.757 961.525 378 961.525Z" fill="#2E2C21"/>
<path id="Vector_255" d="M405.9 892.356C407.143 892.356 408.15 891.643 408.15 890.763C408.15 889.882 407.143 889.169 405.9 889.169C404.657 889.169 403.65 889.882 403.65 890.763C403.65 891.643 404.657 892.356 405.9 892.356Z" fill="#2E2C21"/>
<path id="Vector_256" d="M417.15 796.094C418.393 796.094 419.4 795.38 419.4 794.5C419.4 793.62 418.393 792.906 417.15 792.906C415.907 792.906 414.9 793.62 414.9 794.5C414.9 795.38 415.907 796.094 417.15 796.094Z" fill="#2E2C21"/>
<path id="Vector_257" d="M526.5 804.062C527.743 804.062 528.75 803.349 528.75 802.469C528.75 801.589 527.743 800.875 526.5 800.875C525.257 800.875 524.25 801.589 524.25 802.469C524.25 803.349 525.257 804.062 526.5 804.062Z" fill="#2E2C21"/>
<path id="Vector_258" d="M620.1 783.981C621.343 783.981 622.35 783.268 622.35 782.388C622.35 781.507 621.343 780.794 620.1 780.794C618.857 780.794 617.85 781.507 617.85 782.388C617.85 783.268 618.857 783.981 620.1 783.981Z" fill="#2E2C21"/>
<path id="Vector_259" d="M466.65 853.788C467.893 853.788 468.9 853.074 468.9 852.194C468.9 851.314 467.893 850.6 466.65 850.6C465.407 850.6 464.4 851.314 464.4 852.194C464.4 853.074 465.407 853.788 466.65 853.788Z" fill="#2E2C21"/>
<path id="Vector_260" d="M535.5 892.356C536.743 892.356 537.75 891.643 537.75 890.763C537.75 889.882 536.743 889.169 535.5 889.169C534.257 889.169 533.25 889.882 533.25 890.763C533.25 891.643 534.257 892.356 535.5 892.356Z" fill="#2E2C21"/>
</g>
</g>
<g id="endless-constellation 15" clip-path="url(#clip13)">
<path id="Vector_261" d="M720 257H360V512H720V257Z" fill="#73BDD7"/>
<g id="Group_27">
<path id="Vector_262" d="M777.15 537.5L688.95 491.919L594 467.375L499.05 428.487L378 447.931L492.75 500.525L416.925 537.341L378 447.931L271.35 414.144L405.9 378.762L346.05 329.994L416.925 282.341L328.95 236.919M706.05 329.994L826.65 340.162L706.05 329.994Z" stroke="#2E2C21" stroke-width="0.25"/>
<path id="Vector_263" d="M526.5 545.469L492.75 500.525M346.05 329.994L466.65 340.194L535.5 378.763L631.35 414.144L498.825 428.328L405.675 378.603L346.05 329.994Z" stroke="#2E2C21" stroke-width="0.25"/>
<path id="Vector_264" d="M594 467.375L620.1 525.388L688.95 491.919L738 447.931L631.35 414.144L594 467.375ZM594 467.375L492.75 500.525L499.05 428.488L535.5 378.763L602.55 342.744L706.05 329.994L619.875 270.228L526.5 290.469L492.75 245.525L416.925 282.341L466.65 340.194L405.9 378.763L378 447.931L328.95 491.919L417.15 537.5" stroke="#2E2C21" stroke-width="0.25"/>
<path id="Vector_265" d="M535.5 378.763H405.9M594 212.375L620.325 270.547L688.95 236.919L594 212.375ZM631.35 414.144L602.55 342.744L466.65 340.194L526.5 290.469L631.35 414.144ZM765.9 378.763L602.55 342.744L765.9 378.763Z" stroke="#2E2C21" stroke-width="0.25"/>
<path id="Vector_266" d="M405.9 378.763L242.55 342.744M260.1 270.388L416.925 282.341L526.5 290.469L602.55 342.744L619.875 270.228L777.15 282.5L706.05 329.994L765.9 378.763L631.35 414.144L688.95 491.919L260.1 270.388ZM492.75 245.525L619.875 270.228L492.75 245.525ZM620.1 525.388L492.75 500.525L620.1 525.388ZM378 192.931L417.15 282.5L378 192.931Z" stroke="#2E2C21" stroke-width="0.25"/>
</g>
<g id="Group_28">
<path id="Vector_267" d="M706.05 331.588C707.293 331.588 708.3 330.874 708.3 329.994C708.3 329.114 707.293 328.4 706.05 328.4C704.807 328.4 703.8 329.114 703.8 329.994C703.8 330.874 704.807 331.588 706.05 331.588Z" fill="#2E2C21"/>
<path id="Vector_268" d="M602.55 344.338C603.793 344.338 604.8 343.624 604.8 342.744C604.8 341.864 603.793 341.15 602.55 341.15C601.307 341.15 600.3 341.864 600.3 342.744C600.3 343.624 601.307 344.338 602.55 344.338Z" fill="#2E2C21"/>
<path id="Vector_269" d="M631.35 415.738C632.593 415.738 633.6 415.024 633.6 414.144C633.6 413.264 632.593 412.55 631.35 412.55C630.107 412.55 629.1 413.264 629.1 414.144C629.1 415.024 630.107 415.738 631.35 415.738Z" fill="#2E2C21"/>
<path id="Vector_270" d="M688.95 493.513C690.193 493.513 691.2 492.799 691.2 491.919C691.2 491.039 690.193 490.325 688.95 490.325C687.707 490.325 686.7 491.039 686.7 491.919C686.7 492.799 687.707 493.513 688.95 493.513Z" fill="#2E2C21"/>
<path id="Vector_271" d="M594 468.969C595.243 468.969 596.25 468.255 596.25 467.375C596.25 466.495 595.243 465.781 594 465.781C592.757 465.781 591.75 466.495 591.75 467.375C591.75 468.255 592.757 468.969 594 468.969Z" fill="#2E2C21"/>
<path id="Vector_272" d="M499.05 430.081C500.293 430.081 501.3 429.368 501.3 428.488C501.3 427.607 500.293 426.894 499.05 426.894C497.807 426.894 496.8 427.607 496.8 428.488C496.8 429.368 497.807 430.081 499.05 430.081Z" fill="#2E2C21"/>
<path id="Vector_273" d="M492.75 502.119C493.993 502.119 495 501.405 495 500.525C495 499.645 493.993 498.931 492.75 498.931C491.507 498.931 490.5 499.645 490.5 500.525C490.5 501.405 491.507 502.119 492.75 502.119Z" fill="#2E2C21"/>
<path id="Vector_274" d="M378 449.525C379.243 449.525 380.25 448.812 380.25 447.931C380.25 447.051 379.243 446.338 378 446.338C376.757 446.338 375.75 447.051 375.75 447.931C375.75 448.812 376.757 449.525 378 449.525Z" fill="#2E2C21"/>
<path id="Vector_275" d="M405.9 380.356C407.143 380.356 408.15 379.643 408.15 378.763C408.15 377.882 407.143 377.169 405.9 377.169C404.657 377.169 403.65 377.882 403.65 378.763C403.65 379.643 404.657 380.356 405.9 380.356Z" fill="#2E2C21"/>
<path id="Vector_276" d="M417.15 284.094C418.393 284.094 419.4 283.38 419.4 282.5C419.4 281.62 418.393 280.906 417.15 280.906C415.907 280.906 414.9 281.62 414.9 282.5C414.9 283.38 415.907 284.094 417.15 284.094Z" fill="#2E2C21"/>
<path id="Vector_277" d="M526.5 292.062C527.743 292.062 528.75 291.349 528.75 290.469C528.75 289.589 527.743 288.875 526.5 288.875C525.257 288.875 524.25 289.589 524.25 290.469C524.25 291.349 525.257 292.062 526.5 292.062Z" fill="#2E2C21"/>
<path id="Vector_278" d="M620.1 271.981C621.343 271.981 622.35 271.268 622.35 270.388C622.35 269.507 621.343 268.794 620.1 268.794C618.857 268.794 617.85 269.507 617.85 270.388C617.85 271.268 618.857 271.981 620.1 271.981Z" fill="#2E2C21"/>
<path id="Vector_279" d="M466.65 341.788C467.893 341.788 468.9 341.074 468.9 340.194C468.9 339.314 467.893 338.6 466.65 338.6C465.407 338.6 464.4 339.314 464.4 340.194C464.4 341.074 465.407 341.788 466.65 341.788Z" fill="#2E2C21"/>
<path id="Vector_280" d="M535.5 380.356C536.743 380.356 537.75 379.643 537.75 378.763C537.75 377.882 536.743 377.169 535.5 377.169C534.257 377.169 533.25 377.882 533.25 378.763C533.25 379.643 534.257 380.356 535.5 380.356Z" fill="#2E2C21"/>
</g>
</g>
<g id="endless-constellation 8" clip-path="url(#clip14)">
<path id="Vector_281" d="M1440 769H1080V1024H1440V769Z" fill="#73BDD7"/>
<g id="Group_29">
<path id="Vector_282" d="M1497.15 1049.5L1408.95 1003.92L1314 979.375L1219.05 940.487L1098 959.931L1212.75 1012.52L1136.92 1049.34L1098 959.931L991.35 926.144L1125.9 890.762L1066.05 841.994L1136.92 794.341L1048.95 748.919M1426.05 841.994L1546.65 852.162L1426.05 841.994Z" stroke="#2E2C21" stroke-width="0.25"/>
<path id="Vector_283" d="M1246.5 1057.47L1212.75 1012.53M1066.05 841.994L1186.65 852.194L1255.5 890.763L1351.35 926.144L1218.83 940.328L1125.67 890.603L1066.05 841.994Z" stroke="#2E2C21" stroke-width="0.25"/>
<path id="Vector_284" d="M1314 979.375L1340.1 1037.39L1408.95 1003.92L1458 959.931L1351.35 926.144L1314 979.375ZM1314 979.375L1212.75 1012.53L1219.05 940.488L1255.5 890.763L1322.55 854.744L1426.05 841.994L1339.87 782.228L1246.5 802.469L1212.75 757.525L1136.92 794.341L1186.65 852.194L1125.9 890.763L1098 959.931L1048.95 1003.92L1137.15 1049.5" stroke="#2E2C21" stroke-width="0.25"/>
<path id="Vector_285" d="M1255.5 890.763H1125.9M1314 724.375L1340.33 782.547L1408.95 748.919L1314 724.375ZM1351.35 926.144L1322.55 854.744L1186.65 852.194L1246.5 802.469L1351.35 926.144ZM1485.9 890.763L1322.55 854.744L1485.9 890.763Z" stroke="#2E2C21" stroke-width="0.25"/>
<path id="Vector_286" d="M1125.9 890.763L962.55 854.744M980.1 782.388L1136.93 794.341L1246.5 802.469L1322.55 854.744L1339.88 782.228L1497.15 794.5L1426.05 841.994L1485.9 890.763L1351.35 926.144L1408.95 1003.92L980.1 782.388ZM1212.75 757.525L1339.88 782.228L1212.75 757.525ZM1340.1 1037.39L1212.75 1012.53L1340.1 1037.39ZM1098 704.931L1137.15 794.5L1098 704.931Z" stroke="#2E2C21" stroke-width="0.25"/>
</g>
<g id="Group_30">
<path id="Vector_287" d="M1426.05 843.588C1427.29 843.588 1428.3 842.874 1428.3 841.994C1428.3 841.114 1427.29 840.4 1426.05 840.4C1424.81 840.4 1423.8 841.114 1423.8 841.994C1423.8 842.874 1424.81 843.588 1426.05 843.588Z" fill="#2E2C21"/>
<path id="Vector_288" d="M1322.55 856.338C1323.79 856.338 1324.8 855.624 1324.8 854.744C1324.8 853.864 1323.79 853.15 1322.55 853.15C1321.31 853.15 1320.3 853.864 1320.3 854.744C1320.3 855.624 1321.31 856.338 1322.55 856.338Z" fill="#2E2C21"/>
<path id="Vector_289" d="M1351.35 927.738C1352.59 927.738 1353.6 927.024 1353.6 926.144C1353.6 925.264 1352.59 924.55 1351.35 924.55C1350.11 924.55 1349.1 925.264 1349.1 926.144C1349.1 927.024 1350.11 927.738 1351.35 927.738Z" fill="#2E2C21"/>
<path id="Vector_290" d="M1408.95 1005.51C1410.19 1005.51 1411.2 1004.8 1411.2 1003.92C1411.2 1003.04 1410.19 1002.33 1408.95 1002.33C1407.71 1002.33 1406.7 1003.04 1406.7 1003.92C1406.7 1004.8 1407.71 1005.51 1408.95 1005.51Z" fill="#2E2C21"/>
<path id="Vector_291" d="M1314 980.969C1315.24 980.969 1316.25 980.255 1316.25 979.375C1316.25 978.495 1315.24 977.781 1314 977.781C1312.76 977.781 1311.75 978.495 1311.75 979.375C1311.75 980.255 1312.76 980.969 1314 980.969Z" fill="#2E2C21"/>
<path id="Vector_292" d="M1219.05 942.081C1220.29 942.081 1221.3 941.368 1221.3 940.488C1221.3 939.607 1220.29 938.894 1219.05 938.894C1217.81 938.894 1216.8 939.607 1216.8 940.488C1216.8 941.368 1217.81 942.081 1219.05 942.081Z" fill="#2E2C21"/>
<path id="Vector_293" d="M1212.75 1014.12C1213.99 1014.12 1215 1013.41 1215 1012.53C1215 1011.64 1213.99 1010.93 1212.75 1010.93C1211.51 1010.93 1210.5 1011.64 1210.5 1012.53C1210.5 1013.41 1211.51 1014.12 1212.75 1014.12Z" fill="#2E2C21"/>
<path id="Vector_294" d="M1098 961.525C1099.24 961.525 1100.25 960.812 1100.25 959.931C1100.25 959.051 1099.24 958.338 1098 958.338C1096.76 958.338 1095.75 959.051 1095.75 959.931C1095.75 960.812 1096.76 961.525 1098 961.525Z" fill="#2E2C21"/>
<path id="Vector_295" d="M1125.9 892.356C1127.14 892.356 1128.15 891.643 1128.15 890.763C1128.15 889.882 1127.14 889.169 1125.9 889.169C1124.66 889.169 1123.65 889.882 1123.65 890.763C1123.65 891.643 1124.66 892.356 1125.9 892.356Z" fill="#2E2C21"/>
<path id="Vector_296" d="M1137.15 796.094C1138.39 796.094 1139.4 795.38 1139.4 794.5C1139.4 793.62 1138.39 792.906 1137.15 792.906C1135.91 792.906 1134.9 793.62 1134.9 794.5C1134.9 795.38 1135.91 796.094 1137.15 796.094Z" fill="#2E2C21"/>
<path id="Vector_297" d="M1246.5 804.062C1247.74 804.062 1248.75 803.349 1248.75 802.469C1248.75 801.589 1247.74 800.875 1246.5 800.875C1245.26 800.875 1244.25 801.589 1244.25 802.469C1244.25 803.349 1245.26 804.062 1246.5 804.062Z" fill="#2E2C21"/>
<path id="Vector_298" d="M1340.1 783.981C1341.34 783.981 1342.35 783.268 1342.35 782.388C1342.35 781.507 1341.34 780.794 1340.1 780.794C1338.86 780.794 1337.85 781.507 1337.85 782.388C1337.85 783.268 1338.86 783.981 1340.1 783.981Z" fill="#2E2C21"/>
<path id="Vector_299" d="M1186.65 853.788C1187.89 853.788 1188.9 853.074 1188.9 852.194C1188.9 851.314 1187.89 850.6 1186.65 850.6C1185.41 850.6 1184.4 851.314 1184.4 852.194C1184.4 853.074 1185.41 853.788 1186.65 853.788Z" fill="#2E2C21"/>
<path id="Vector_300" d="M1255.5 892.356C1256.74 892.356 1257.75 891.643 1257.75 890.763C1257.75 889.882 1256.74 889.169 1255.5 889.169C1254.26 889.169 1253.25 889.882 1253.25 890.763C1253.25 891.643 1254.26 892.356 1255.5 892.356Z" fill="#2E2C21"/>
</g>
</g>
<g id="endless-constellation 16" clip-path="url(#clip15)">
<path id="Vector_301" d="M1440 257H1080V512H1440V257Z" fill="#73BDD7"/>
<g id="Group_31">
<path id="Vector_302" d="M1497.15 537.5L1408.95 491.919L1314 467.375L1219.05 428.487L1098 447.931L1212.75 500.525L1136.92 537.341L1098 447.931L991.35 414.144L1125.9 378.762L1066.05 329.994L1136.92 282.341L1048.95 236.919M1426.05 329.994L1546.65 340.162L1426.05 329.994Z" stroke="#2E2C21" stroke-width="0.25"/>
<path id="Vector_303" d="M1246.5 545.469L1212.75 500.525M1066.05 329.994L1186.65 340.194L1255.5 378.763L1351.35 414.144L1218.83 428.328L1125.67 378.603L1066.05 329.994Z" stroke="#2E2C21" stroke-width="0.25"/>
<path id="Vector_304" d="M1314 467.375L1340.1 525.388L1408.95 491.919L1458 447.931L1351.35 414.144L1314 467.375ZM1314 467.375L1212.75 500.525L1219.05 428.488L1255.5 378.763L1322.55 342.744L1426.05 329.994L1339.87 270.228L1246.5 290.469L1212.75 245.525L1136.92 282.341L1186.65 340.194L1125.9 378.763L1098 447.931L1048.95 491.919L1137.15 537.5" stroke="#2E2C21" stroke-width="0.25"/>
<path id="Vector_305" d="M1255.5 378.763H1125.9M1314 212.375L1340.33 270.547L1408.95 236.919L1314 212.375ZM1351.35 414.144L1322.55 342.744L1186.65 340.194L1246.5 290.469L1351.35 414.144ZM1485.9 378.763L1322.55 342.744L1485.9 378.763Z" stroke="#2E2C21" stroke-width="0.25"/>
<path id="Vector_306" d="M1125.9 378.763L962.55 342.744M980.1 270.388L1136.93 282.341L1246.5 290.469L1322.55 342.744L1339.88 270.228L1497.15 282.5L1426.05 329.994L1485.9 378.763L1351.35 414.144L1408.95 491.919L980.1 270.388ZM1212.75 245.525L1339.88 270.228L1212.75 245.525ZM1340.1 525.388L1212.75 500.525L1340.1 525.388ZM1098 192.931L1137.15 282.5L1098 192.931Z" stroke="#2E2C21" stroke-width="0.25"/>
</g>
<g id="Group_32">
<path id="Vector_307" d="M1426.05 331.588C1427.29 331.588 1428.3 330.874 1428.3 329.994C1428.3 329.114 1427.29 328.4 1426.05 328.4C1424.81 328.4 1423.8 329.114 1423.8 329.994C1423.8 330.874 1424.81 331.588 1426.05 331.588Z" fill="#2E2C21"/>
<path id="Vector_308" d="M1322.55 344.338C1323.79 344.338 1324.8 343.624 1324.8 342.744C1324.8 341.864 1323.79 341.15 1322.55 341.15C1321.31 341.15 1320.3 341.864 1320.3 342.744C1320.3 343.624 1321.31 344.338 1322.55 344.338Z" fill="#2E2C21"/>
<path id="Vector_309" d="M1351.35 415.738C1352.59 415.738 1353.6 415.024 1353.6 414.144C1353.6 413.264 1352.59 412.55 1351.35 412.55C1350.11 412.55 1349.1 413.264 1349.1 414.144C1349.1 415.024 1350.11 415.738 1351.35 415.738Z" fill="#2E2C21"/>
<path id="Vector_310" d="M1408.95 493.513C1410.19 493.513 1411.2 492.799 1411.2 491.919C1411.2 491.039 1410.19 490.325 1408.95 490.325C1407.71 490.325 1406.7 491.039 1406.7 491.919C1406.7 492.799 1407.71 493.513 1408.95 493.513Z" fill="#2E2C21"/>
<path id="Vector_311" d="M1314 468.969C1315.24 468.969 1316.25 468.255 1316.25 467.375C1316.25 466.495 1315.24 465.781 1314 465.781C1312.76 465.781 1311.75 466.495 1311.75 467.375C1311.75 468.255 1312.76 468.969 1314 468.969Z" fill="#2E2C21"/>
<path id="Vector_312" d="M1219.05 430.081C1220.29 430.081 1221.3 429.368 1221.3 428.488C1221.3 427.607 1220.29 426.894 1219.05 426.894C1217.81 426.894 1216.8 427.607 1216.8 428.488C1216.8 429.368 1217.81 430.081 1219.05 430.081Z" fill="#2E2C21"/>
<path id="Vector_313" d="M1212.75 502.119C1213.99 502.119 1215 501.405 1215 500.525C1215 499.645 1213.99 498.931 1212.75 498.931C1211.51 498.931 1210.5 499.645 1210.5 500.525C1210.5 501.405 1211.51 502.119 1212.75 502.119Z" fill="#2E2C21"/>
<path id="Vector_314" d="M1098 449.525C1099.24 449.525 1100.25 448.812 1100.25 447.931C1100.25 447.051 1099.24 446.338 1098 446.338C1096.76 446.338 1095.75 447.051 1095.75 447.931C1095.75 448.812 1096.76 449.525 1098 449.525Z" fill="#2E2C21"/>
<path id="Vector_315" d="M1125.9 380.356C1127.14 380.356 1128.15 379.643 1128.15 378.763C1128.15 377.882 1127.14 377.169 1125.9 377.169C1124.66 377.169 1123.65 377.882 1123.65 378.763C1123.65 379.643 1124.66 380.356 1125.9 380.356Z" fill="#2E2C21"/>
<path id="Vector_316" d="M1137.15 284.094C1138.39 284.094 1139.4 283.38 1139.4 282.5C1139.4 281.62 1138.39 280.906 1137.15 280.906C1135.91 280.906 1134.9 281.62 1134.9 282.5C1134.9 283.38 1135.91 284.094 1137.15 284.094Z" fill="#2E2C21"/>
<path id="Vector_317" d="M1246.5 292.062C1247.74 292.062 1248.75 291.349 1248.75 290.469C1248.75 289.589 1247.74 288.875 1246.5 288.875C1245.26 288.875 1244.25 289.589 1244.25 290.469C1244.25 291.349 1245.26 292.062 1246.5 292.062Z" fill="#2E2C21"/>
<path id="Vector_318" d="M1340.1 271.981C1341.34 271.981 1342.35 271.268 1342.35 270.388C1342.35 269.507 1341.34 268.794 1340.1 268.794C1338.86 268.794 1337.85 269.507 1337.85 270.388C1337.85 271.268 1338.86 271.981 1340.1 271.981Z" fill="#2E2C21"/>
<path id="Vector_319" d="M1186.65 341.788C1187.89 341.788 1188.9 341.074 1188.9 340.194C1188.9 339.314 1187.89 338.6 1186.65 338.6C1185.41 338.6 1184.4 339.314 1184.4 340.194C1184.4 341.074 1185.41 341.788 1186.65 341.788Z" fill="#2E2C21"/>
<path id="Vector_320" d="M1255.5 380.356C1256.74 380.356 1257.75 379.643 1257.75 378.763C1257.75 377.882 1256.74 377.169 1255.5 377.169C1254.26 377.169 1253.25 377.882 1253.25 378.763C1253.25 379.643 1254.26 380.356 1255.5 380.356Z" fill="#2E2C21"/>
</g>
</g>
</g>
<defs>
<clipPath id="clip0">
<rect width="360" height="255" fill="white" transform="translate(0 769)"/>
</clipPath>
<clipPath id="clip1">
<rect width="360" height="255" fill="white" transform="translate(0 257)"/>
</clipPath>
<clipPath id="clip2">
<rect width="360" height="255" fill="white" transform="translate(720 769)"/>
</clipPath>
<clipPath id="clip3">
<rect width="360" height="255" fill="white" transform="translate(720 257)"/>
</clipPath>
<clipPath id="clip4">
<rect width="360" height="257" fill="white" transform="translate(0 512)"/>
</clipPath>
<clipPath id="clip5">
<rect width="360" height="257" fill="white"/>
</clipPath>
<clipPath id="clip6">
<rect width="360" height="257" fill="white" transform="translate(720 512)"/>
</clipPath>
<clipPath id="clip7">
<rect width="360" height="257" fill="white" transform="translate(720)"/>
</clipPath>
<clipPath id="clip8">
<rect width="360" height="257" fill="white" transform="translate(360 512)"/>
</clipPath>
<clipPath id="clip9">
<rect width="360" height="257" fill="white" transform="translate(360)"/>
</clipPath>
<clipPath id="clip10">
<rect width="360" height="257" fill="white" transform="translate(1080 512)"/>
</clipPath>
<clipPath id="clip11">
<rect width="360" height="257" fill="white" transform="translate(1080)"/>
</clipPath>
<clipPath id="clip12">
<rect width="360" height="255" fill="white" transform="translate(360 769)"/>
</clipPath>
<clipPath id="clip13">
<rect width="360" height="255" fill="white" transform="translate(360 257)"/>
</clipPath>
<clipPath id="clip14">
<rect width="360" height="255" fill="white" transform="translate(1080 769)"/>
</clipPath>
<clipPath id="clip15">
<rect width="360" height="255" fill="white" transform="translate(1080 257)"/>
</clipPath>
</defs>
</svg>
