<svg width="494" height="457" viewBox="0 0 494 457" fill="none" xmlns="http://www.w3.org/2000/svg">
<g id="Potpis">
<path id="Vector 25" d="M269.808 73.5494C220.901 10.9943 311.95 11.2515 282.977 112.17M282.977 112.17C282.242 121.587 281.02 126.631 271.615 133.522C259.126 131.422 260.256 127.247 282.977 112.17ZM282.977 112.17C312.825 95.8614 330.949 86.4885 326.403 75.8455" stroke="black" stroke-width="4"/>
<path id="Vector 24" d="M63.0426 269.88C75.8759 322.677 105.344 279.319 73.8059 258.115C106.506 295.126 119.276 314.398 116.956 342.092C95.7758 373.738 83.1734 309.335 119.626 221.621C121.057 228.186 122.297 234.37 123.471 239.711M132.847 256.923C128.865 260.939 126.369 252.89 123.471 239.711M123.471 239.711C134.906 219.557 137.212 210.621 134.132 198.937M123.471 239.711C134.026 231.292 140.2 230.691 151.763 238.338M147.629 199.236C152.029 226.34 175.967 206.866 163.391 187.583C182.983 213.046 190.837 145.18 174.082 88.7953C184.934 203.284 202.615 200.455 218.219 150.788M153.802 146.36C182.495 128.777 200.225 119.135 214.85 99.7013" stroke="black" stroke-width="4"/>
<path id="Vector 23" d="M18.5069 319.027C15.1735 303.77 12.4584 297.894 6.09922 292.211C21.037 302.539 26.5969 291.901 13.4998 252.595C18.617 251.274 28.3465 273.372 47.1538 324.093M61.6914 363.877C56.3247 349.047 51.4972 335.807 47.1538 324.093M27.1347 327.397L56.1238 293.454M47.1538 324.093C71.5709 312.04 143.212 397.646 106.861 440.702C70.5088 483.758 24.9836 416.44 91.438 379.929" stroke="black" stroke-width="4"/>
<path id="Vector 26" d="M2 444.515C222.102 169.331 519 -86.4853 489 31.5147" stroke="black" stroke-width="4"/>
</g>
</svg>
